{"glyphs":{"0":{"ha":772,"x_min":29,"x_max":743,"o":"m 385 992 q 119 865 208 992 q 29 490 29 738 q 385 -19 29 -19 q 652 109 561 -19 q 743 490 743 238 q 651 865 743 739 q 385 992 560 992 m 226 496 q 267 751 226 674 q 383 829 307 829 q 503 753 461 829 q 546 496 546 676 q 530 294 546 361 q 480 185 514 226 q 385 143 446 143 q 267 221 308 143 q 226 496 226 299 "},"1":{"ha":772,"x_min":103,"x_max":544,"o":"m 544 972 l 388 972 q 117 779 357 779 l 103 779 l 103 631 l 347 631 l 347 0 l 544 0 l 544 972 "},"2":{"ha":772,"x_min":29,"x_max":743,"o":"m 404 992 q 147 890 243 992 q 51 617 51 788 l 51 599 l 240 599 q 281 763 242 703 q 394 822 321 822 q 501 781 463 822 q 540 672 540 739 q 528 608 540 639 q 482 543 517 578 q 315 421 447 508 q 90 219 150 311 q 29 0 29 126 l 743 0 l 743 169 l 283 169 q 506 354 343 253 q 658 475 614 425 q 719 576 701 525 q 738 688 738 626 q 642 906 738 821 q 404 992 547 992 "},"3":{"ha":772,"x_min":25,"x_max":747,"o":"m 385 992 q 145 901 236 992 q 49 656 54 810 l 236 656 q 276 783 236 738 q 386 829 315 829 q 483 796 442 829 q 524 700 524 763 q 480 610 524 642 q 353 579 436 579 l 317 579 l 317 440 l 347 440 q 490 410 439 440 q 542 296 542 381 q 497 185 542 228 q 383 143 453 143 q 262 193 307 143 q 213 335 217 243 l 25 335 l 25 324 q 122 74 25 168 q 386 -19 219 -19 q 644 69 542 -19 q 747 300 747 158 q 702 442 747 382 q 575 521 657 503 l 575 524 q 676 597 642 543 q 711 722 711 650 q 617 914 711 836 q 385 992 522 992 "},"4":{"ha":772,"x_min":22,"x_max":750,"o":"m 621 972 l 444 972 l 22 406 l 22 225 l 433 225 l 433 0 l 621 0 l 621 225 l 750 225 l 750 388 l 621 388 l 621 972 m 429 725 l 433 725 l 433 388 l 178 388 l 429 725 "},"5":{"ha":772,"x_min":25,"x_max":747,"o":"m 694 972 l 151 972 l 56 435 l 233 435 q 294 494 261 475 q 381 513 328 513 q 505 460 460 513 q 550 331 550 408 q 503 198 550 253 q 382 143 456 143 q 273 183 317 143 q 222 289 229 222 l 25 289 q 128 65 28 150 q 390 -19 228 -19 q 642 83 538 -19 q 747 331 747 185 q 665 569 747 478 q 447 661 582 661 q 257 586 332 661 l 254 589 l 293 810 l 694 810 l 694 972 "},"6":{"ha":772,"x_min":29,"x_max":743,"o":"m 411 992 q 128 846 226 992 q 29 483 29 700 q 126 109 29 238 q 403 -19 222 -19 q 649 83 554 -19 q 743 336 743 185 q 656 565 743 478 q 443 653 568 653 q 225 544 300 653 l 222 547 q 278 763 228 682 q 408 843 328 843 q 492 810 456 843 q 539 722 528 778 l 726 722 q 625 921 710 850 q 411 992 540 992 m 240 324 q 283 454 240 404 q 396 504 325 504 q 505 453 464 504 q 546 321 546 401 q 504 196 546 249 q 397 143 463 143 q 283 196 326 143 q 240 324 240 249 "},"7":{"ha":772,"x_min":54,"x_max":718,"o":"m 718 972 l 54 972 l 54 789 l 515 789 q 291 419 376 621 q 189 0 206 217 l 400 0 q 491 451 403 224 q 718 803 579 679 l 718 972 "},"8":{"ha":772,"x_min":19,"x_max":753,"o":"m 388 992 q 156 918 253 992 q 60 726 60 844 q 97 599 60 651 q 203 526 133 546 l 203 524 q 67 440 115 503 q 19 285 19 376 q 124 63 19 144 q 389 -19 228 -19 q 650 65 547 -19 q 753 286 753 149 q 708 439 753 376 q 571 524 663 501 l 571 526 q 677 604 642 550 q 713 729 713 658 q 673 856 713 794 q 560 954 633 917 q 388 992 486 992 m 239 708 q 281 805 239 767 q 386 843 322 843 q 493 808 453 843 q 533 708 533 772 q 492 613 533 646 q 388 581 450 581 q 283 613 328 581 q 239 708 239 646 m 217 294 q 265 408 217 368 q 388 449 314 449 q 508 404 461 449 q 556 293 556 360 q 508 175 556 221 q 389 129 461 129 q 266 174 315 129 q 217 294 217 219 "},"9":{"ha":772,"x_min":29,"x_max":743,"o":"m 371 992 q 126 891 222 992 q 29 636 29 790 q 69 470 29 540 q 178 360 108 400 q 328 319 249 319 q 547 428 471 319 l 550 425 q 491 204 539 279 q 364 129 443 129 q 280 163 315 129 q 233 250 244 197 l 46 250 q 148 51 63 121 q 361 -19 233 -19 q 640 122 536 -19 q 743 490 743 263 q 647 863 743 733 q 371 992 550 992 m 226 651 q 268 777 226 725 q 375 829 310 829 q 489 776 446 829 q 532 649 532 724 q 488 516 532 564 q 375 468 443 468 q 267 519 308 468 q 226 651 226 571 "},"\u0000":{"ha":0,"x_min":0,"x_max":0,"o":""},"\r":{"ha":386,"x_min":0,"x_max":0,"o":""}," ":{"ha":386,"x_min":0,"x_max":0,"o":""},"!":{"ha":386,"x_min":85,"x_max":303,"o":"m 296 992 l 90 992 l 90 725 l 143 297 l 242 297 l 296 725 l 296 992 m 303 214 l 85 214 l 85 0 l 303 0 l 303 214 "},"\"":{"ha":643,"x_min":118,"x_max":525,"o":"m 267 992 l 118 992 l 118 546 l 267 546 l 267 992 m 525 992 l 376 992 l 376 546 l 525 546 l 525 992 "},"#":{"ha":772,"x_min":46,"x_max":726,"o":"m 393 972 l 258 972 l 219 697 l 88 697 l 88 572 l 203 572 l 178 400 l 46 400 l 46 275 l 161 275 l 122 0 l 257 0 l 258 4 l 296 275 l 429 275 l 392 0 l 526 0 l 564 275 l 685 275 l 685 400 l 582 400 l 606 572 l 726 572 l 726 697 l 624 697 l 661 972 l 526 972 l 489 697 l 354 697 l 393 972 m 338 572 l 471 572 l 447 400 l 313 400 l 338 572 "},"$":{"ha":772,"x_min":-1,"x_max":774,"o":"m 344 1122 l 344 1015 q 109 923 196 1004 q 22 718 22 842 q 56 585 22 639 q 138 505 89 532 q 217 467 186 478 q 344 429 247 456 l 344 139 q 236 200 276 153 q 196 318 196 247 l 196 322 l -1 322 q 103 72 14 158 q 344 -24 193 -14 l 344 -142 l 426 -142 l 426 -24 q 611 25 532 -18 q 732 137 690 68 q 774 275 774 206 q 692 492 774 418 q 426 607 611 567 l 426 853 q 506 815 472 853 q 542 719 539 778 l 739 719 q 651 924 732 849 q 426 1015 569 1000 l 426 1122 l 344 1122 m 219 738 q 256 821 219 789 q 344 853 292 853 l 344 626 q 249 667 279 642 q 219 738 219 693 m 426 139 l 426 406 q 544 356 511 383 q 576 275 576 328 q 534 183 576 219 q 426 139 492 146 "},"%":{"ha":1389,"x_min":104,"x_max":1285,"o":"m 1046 1003 l 928 1003 l 353 -31 l 474 -31 l 1046 1003 m 340 992 q 167 918 229 992 q 104 717 104 844 q 333 450 104 450 q 507 517 446 450 q 568 713 568 585 q 509 920 568 849 q 340 992 450 992 m 246 713 q 270 847 246 807 q 340 888 294 888 q 426 713 426 888 q 335 554 426 554 q 269 587 292 554 q 246 713 246 619 m 1057 522 q 883 451 946 522 q 821 254 821 379 q 876 55 821 129 q 1050 -19 931 -19 q 1224 53 1164 -19 q 1285 250 1285 125 q 1057 522 1285 522 m 963 253 q 1056 418 963 418 q 1143 253 1143 418 q 1124 131 1143 178 q 1051 85 1104 85 q 985 120 1007 85 q 963 253 963 156 "},"&":{"ha":951,"x_min":44,"x_max":967,"o":"m 432 1003 q 248 938 324 1003 q 172 776 172 874 q 192 678 172 728 q 267 565 211 629 q 44 278 44 460 q 133 63 44 146 q 365 -19 221 -19 q 644 99 524 -19 l 725 0 l 967 0 l 765 235 q 861 479 846 340 l 690 479 q 654 361 682 410 l 526 518 q 703 765 703 613 q 626 939 703 875 q 432 1003 550 1003 m 351 783 q 378 847 351 824 q 439 871 404 871 q 504 843 478 871 q 531 776 531 815 q 506 699 531 731 q 429 635 482 667 q 368 717 385 685 q 351 783 351 750 m 232 274 q 371 438 232 379 l 540 231 q 374 143 463 143 q 275 181 318 143 q 232 274 232 219 "},"'":{"ha":386,"x_min":119,"x_max":268,"o":"m 268 992 l 119 992 l 119 546 l 268 546 l 268 992 "},"(":{"ha":411,"x_min":72,"x_max":421,"o":"m 421 1015 l 256 1015 q 122 719 172 893 q 72 372 72 546 q 256 -253 72 46 l 419 -253 q 269 386 269 39 q 421 1015 269 735 "},")":{"ha":411,"x_min":-10,"x_max":339,"o":"m 156 1015 l -8 1015 q 142 375 142 721 q -10 -253 142 36 l 156 -253 q 291 48 243 -124 q 339 389 339 219 q 156 1015 339 717 "},"*":{"ha":565,"x_min":31,"x_max":535,"o":"m 336 992 l 225 992 l 225 818 l 68 879 l 31 772 l 192 718 l 89 582 l 182 514 l 279 657 l 382 514 l 474 582 l 371 718 l 535 772 l 497 879 l 336 818 l 336 992 "},"+":{"ha":833,"x_min":67,"x_max":768,"o":"m 492 701 l 343 701 l 343 425 l 67 425 l 67 276 l 343 276 l 343 0 l 492 0 l 492 276 l 768 276 l 768 425 l 492 425 l 492 701 "},",":{"ha":386,"x_min":85,"x_max":303,"o":"m 303 214 l 85 214 l 85 0 l 185 0 l 185 -10 q 158 -85 185 -50 q 86 -131 131 -121 l 86 -231 q 244 -151 186 -215 q 303 -3 303 -87 l 303 214 "},"-":{"ha":565,"x_min":74,"x_max":492,"o":"m 492 464 l 74 464 l 74 294 l 492 294 l 492 464 "},".":{"ha":386,"x_min":83,"x_max":301,"o":"m 301 214 l 83 214 l 83 0 l 301 0 l 301 214 "},"/":{"ha":515,"x_min":-15,"x_max":531,"o":"m 531 1015 l 372 1015 l -15 -24 l 143 -24 l 531 1015 "},":":{"ha":386,"x_min":19,"x_max":303,"o":"m 303 706 l 85 706 l 85 492 l 303 492 l 303 706 m 303 214 l 85 214 l 85 0 l 303 0 l 303 214 m 19 718 "},";":{"ha":386,"x_min":32,"x_max":303,"o":"m 303 706 l 85 706 l 85 492 l 303 492 l 303 706 m 303 214 l 85 214 l 85 0 l 185 0 l 185 -10 q 156 -87 185 -53 q 86 -131 128 -122 l 86 -231 q 241 -154 179 -217 q 303 -1 303 -92 l 303 214 m 32 718 "},"<":{"ha":833,"x_min":64,"x_max":769,"o":"m 769 554 l 769 714 l 64 433 l 64 269 l 769 -11 l 769 149 l 260 351 l 769 554 "},"=":{"ha":833,"x_min":67,"x_max":768,"o":"m 768 574 l 67 574 l 67 425 l 768 425 l 768 574 m 768 276 l 67 276 l 67 128 l 768 128 l 768 276 "},">":{"ha":833,"x_min":64,"x_max":769,"o":"m 64 714 l 64 554 l 574 351 l 64 149 l 64 -11 l 769 269 l 769 433 l 64 714 "},"?":{"ha":772,"x_min":44,"x_max":728,"o":"m 382 1015 q 141 921 235 1015 q 44 672 47 826 l 249 672 q 285 804 249 756 q 392 853 322 853 q 510 728 510 853 q 493 658 510 686 q 411 581 476 631 q 318 476 349 532 q 288 338 288 421 l 288 297 l 475 297 l 475 338 q 500 415 475 381 q 607 510 525 450 q 701 616 675 558 q 728 746 728 674 q 685 881 728 818 q 566 980 643 944 q 382 1015 489 1015 m 486 214 l 268 214 l 268 0 l 486 0 l 486 214 "},"@":{"ha":1111,"x_min":50,"x_max":1061,"o":"m 578 1015 q 313 945 436 1015 q 119 756 189 875 q 50 496 50 636 q 206 125 50 274 q 585 -24 363 -24 q 822 33 711 -24 q 1008 201 933 89 l 892 201 q 758 117 838 147 q 593 88 679 88 q 296 202 408 88 q 183 493 183 317 q 293 790 183 676 q 576 904 403 904 q 850 810 747 904 q 953 563 953 717 q 904 384 953 461 q 789 307 856 307 q 765 339 765 307 q 779 410 765 363 l 864 757 l 750 757 l 728 682 q 662 755 707 731 q 565 779 617 779 q 350 674 438 779 q 263 426 263 568 q 328 258 263 328 q 481 188 393 188 q 631 268 581 188 l 633 268 q 665 210 636 232 q 733 189 693 189 q 880 244 799 189 q 1011 388 961 299 q 1061 592 1061 476 q 996 808 1061 710 q 818 960 931 906 q 578 1015 706 1015 m 404 443 q 457 585 404 524 q 575 647 510 647 q 653 613 624 647 q 683 529 683 578 q 633 383 683 447 q 513 319 582 319 q 433 355 461 319 q 404 443 404 390 "},"A":{"ha":951,"x_min":-10,"x_max":961,"o":"m 590 992 l 367 992 l -10 0 l 211 0 l 289 221 l 660 221 l 735 0 l 961 0 l 590 992 m 475 747 l 478 747 l 603 383 l 346 383 l 475 747 "},"B":{"ha":978,"x_min":96,"x_max":926,"o":"m 564 992 l 96 992 l 96 0 l 576 0 q 830 77 733 0 q 926 288 926 154 q 881 447 926 381 q 744 539 836 513 q 879 747 879 607 q 564 992 879 992 m 536 590 l 314 590 l 314 822 l 521 822 q 668 708 668 822 q 536 590 668 590 m 549 169 l 314 169 l 314 442 l 553 442 q 708 300 708 442 q 549 169 708 169 "},"C":{"ha":1029,"x_min":53,"x_max":976,"o":"m 540 1015 q 186 869 319 1015 q 53 492 53 722 q 188 120 53 264 q 540 -24 322 -24 q 841 85 722 -24 q 976 382 960 193 l 765 382 q 693 217 751 275 q 540 160 635 160 q 342 249 414 160 q 271 492 271 339 q 342 740 271 649 q 540 832 413 832 q 683 782 621 832 q 757 658 746 732 l 968 658 q 832 917 950 819 q 540 1015 714 1015 "},"D":{"ha":1029,"x_min":96,"x_max":974,"o":"m 521 992 l 96 992 l 96 0 l 526 0 q 852 132 731 0 q 974 501 974 264 q 853 861 974 731 q 521 992 732 992 m 507 183 l 314 183 l 314 808 l 469 808 q 685 727 615 808 q 756 482 756 646 q 690 261 756 339 q 507 183 625 183 "},"E":{"ha":900,"x_min":96,"x_max":849,"o":"m 838 992 l 96 992 l 96 0 l 849 0 l 849 183 l 314 183 l 314 426 l 794 426 l 794 596 l 314 596 l 314 808 l 838 808 l 838 992 "},"F":{"ha":824,"x_min":96,"x_max":793,"o":"m 793 992 l 96 992 l 96 0 l 314 0 l 314 410 l 729 410 l 729 579 l 314 579 l 314 808 l 793 808 l 793 992 "},"G":{"ha":1054,"x_min":53,"x_max":974,"o":"m 540 1015 q 186 869 319 1015 q 53 492 53 722 q 187 121 53 265 q 540 -24 321 -24 q 813 113 708 -24 l 835 0 l 974 0 l 974 536 l 557 536 l 557 374 l 776 374 q 540 160 754 160 q 343 249 415 160 q 271 492 271 339 q 342 740 271 647 q 540 832 413 832 q 675 790 619 832 q 750 665 731 749 l 958 665 q 828 917 946 818 q 540 1015 710 1015 "},"H":{"ha":1029,"x_min":96,"x_max":933,"o":"m 314 992 l 96 992 l 96 0 l 314 0 l 314 428 l 715 428 l 715 0 l 933 0 l 933 992 l 715 992 l 715 611 l 314 611 l 314 992 "},"I":{"ha":410,"x_min":96,"x_max":314,"o":"m 314 992 l 96 992 l 96 0 l 314 0 l 314 992 "},"J":{"ha":772,"x_min":19,"x_max":676,"o":"m 676 992 l 458 992 l 458 314 q 431 193 458 226 q 343 160 403 160 q 249 197 281 160 q 217 321 217 233 l 217 369 l 19 369 l 19 281 q 110 58 19 139 q 349 -24 200 -24 q 676 311 676 -24 l 676 992 "},"K":{"ha":1003,"x_min":96,"x_max":1011,"o":"m 314 992 l 96 992 l 96 0 l 314 0 l 314 319 l 439 446 l 738 0 l 1011 0 l 586 600 l 974 992 l 701 992 l 314 581 l 314 992 "},"L":{"ha":824,"x_min":96,"x_max":797,"o":"m 314 992 l 96 992 l 96 0 l 797 0 l 797 183 l 314 183 l 314 992 "},"M":{"ha":1260,"x_min":96,"x_max":1164,"o":"m 403 992 l 96 992 l 96 0 l 300 0 l 300 696 l 303 696 l 546 0 l 714 0 l 957 703 l 960 703 l 960 0 l 1164 0 l 1164 992 l 857 992 l 638 310 l 635 310 l 403 992 "},"N":{"ha":1029,"x_min":96,"x_max":933,"o":"m 313 992 l 96 992 l 96 0 l 300 0 l 300 664 l 303 664 l 715 0 l 933 0 l 933 992 l 729 992 l 729 326 l 726 326 l 313 992 "},"O":{"ha":1081,"x_min":53,"x_max":1028,"o":"m 540 1015 q 188 869 322 1015 q 53 492 53 722 q 187 121 53 265 q 540 -24 321 -24 q 893 121 758 -24 q 1028 492 1028 265 q 894 869 1028 724 q 540 1015 760 1015 m 271 492 q 342 742 271 651 q 539 832 414 832 q 738 742 667 832 q 810 492 810 651 q 738 249 810 339 q 540 160 665 160 q 342 251 413 160 q 271 492 271 342 "},"P":{"ha":926,"x_min":96,"x_max":886,"o":"m 544 992 l 96 992 l 96 0 l 314 0 l 314 356 l 546 356 q 794 441 703 356 q 886 674 886 526 q 794 906 886 819 q 544 992 703 992 m 488 525 l 314 525 l 314 822 l 489 822 q 630 786 585 822 q 675 674 675 750 q 628 560 675 594 q 488 525 582 525 "},"Q":{"ha":1081,"x_min":53,"x_max":1028,"o":"m 540 1015 q 186 869 319 1015 q 53 492 53 722 q 187 122 53 268 q 540 -24 321 -24 q 781 35 678 -24 l 921 -93 l 1022 14 l 899 126 q 1028 492 1028 275 q 894 868 1028 721 q 540 1015 761 1015 m 271 492 q 343 742 271 651 q 539 832 415 832 q 738 741 665 832 q 810 492 810 650 q 749 264 810 343 l 636 367 l 535 258 l 628 174 q 542 160 613 160 q 342 250 414 160 q 271 492 271 340 "},"R":{"ha":1003,"x_min":96,"x_max":950,"o":"m 631 992 l 96 992 l 96 0 l 314 0 l 314 388 l 533 388 q 656 347 618 388 q 704 172 693 306 q 732 0 714 46 l 950 0 q 911 182 917 46 q 892 333 907 286 q 847 416 876 381 q 764 467 817 451 l 764 469 q 921 718 921 532 q 838 915 921 838 q 631 992 756 992 m 554 543 l 314 543 l 314 822 l 553 822 q 664 791 625 822 q 703 685 703 760 q 663 574 703 606 q 554 543 624 543 "},"S":{"ha":901,"x_min":33,"x_max":868,"o":"m 438 1015 q 260 982 346 1015 q 120 879 174 949 q 67 717 67 810 q 99 588 67 642 q 192 497 131 535 q 386 426 253 460 q 550 383 501 400 q 628 338 599 365 q 657 269 657 310 q 603 177 657 208 q 463 146 550 146 q 304 194 364 146 q 244 329 244 242 l 33 329 l 33 322 q 152 69 33 161 q 456 -24 271 -24 q 672 15 576 -24 q 818 126 768 53 q 868 294 868 200 q 833 433 868 376 q 732 525 799 489 q 542 592 665 561 q 376 636 424 621 q 303 671 329 651 q 278 733 278 690 q 319 816 278 786 q 429 846 361 846 q 573 808 526 846 q 624 696 619 771 l 835 696 q 727 932 835 849 q 438 1015 619 1015 "},"T":{"ha":849,"x_min":18,"x_max":831,"o":"m 831 992 l 18 992 l 18 808 l 315 808 l 315 0 l 533 0 l 533 808 l 831 808 l 831 992 "},"U":{"ha":1029,"x_min":92,"x_max":938,"o":"m 310 992 l 92 992 l 92 371 q 195 81 92 185 q 514 -24 299 -24 q 831 81 725 -24 q 938 371 938 185 l 938 992 l 719 992 l 719 371 q 674 210 719 261 q 514 160 628 160 q 359 210 408 160 q 310 371 310 261 l 310 992 "},"V":{"ha":875,"x_min":-11,"x_max":886,"o":"m 214 992 l -11 992 l 311 0 l 557 0 l 886 992 l 661 992 l 438 294 l 435 294 l 214 992 "},"W":{"ha":1311,"x_min":4,"x_max":1307,"o":"m 222 992 l 4 992 l 267 0 l 488 0 l 653 675 l 656 675 l 824 0 l 1040 0 l 1307 992 l 1093 992 l 931 308 l 928 308 l 758 992 l 554 992 l 382 317 l 379 317 l 222 992 "},"X":{"ha":926,"x_min":-8,"x_max":935,"o":"m 272 992 l 19 992 l 339 519 l -8 0 l 238 0 l 458 343 l 675 0 l 935 0 l 589 518 l 907 992 l 668 992 l 467 675 l 272 992 "},"Y":{"ha":926,"x_min":-12,"x_max":939,"o":"m 233 992 l -12 992 l 353 386 l 353 0 l 571 0 l 571 381 l 939 992 l 696 992 l 465 600 l 233 992 "},"Z":{"ha":900,"x_min":32,"x_max":868,"o":"m 854 992 l 74 992 l 74 808 l 564 808 l 32 172 l 32 0 l 868 0 l 868 183 l 322 183 l 854 819 l 854 992 "},"[":{"ha":463,"x_min":94,"x_max":461,"o":"m 461 1015 l 94 1015 l 94 -253 l 461 -253 l 461 -97 l 292 -97 l 292 860 l 461 860 l 461 1015 "},"\\":{"ha":515,"x_min":-15,"x_max":531,"o":"m 143 1015 l -15 1015 l 372 -24 l 531 -24 l 143 1015 "},"]":{"ha":463,"x_min":1,"x_max":368,"o":"m 368 1015 l 1 1015 l 1 860 l 171 860 l 171 -97 l 1 -97 l 1 -253 l 368 -253 l 368 1015 "},"^":{"ha":833,"x_min":85,"x_max":749,"o":"m 510 972 l 324 972 l 85 438 l 247 438 l 417 819 l 586 438 l 749 438 l 510 972 "},"_":{"ha":694,"x_min":0,"x_max":694,"o":"m 694 -104 l 0 -104 l 0 -174 l 694 -174 l 694 -104 "},"`":{"ha":360,"x_min":-67,"x_max":285,"o":"m 151 1015 l -67 1015 l 147 818 l 285 818 l 151 1015 "},"a":{"ha":797,"x_min":44,"x_max":744,"o":"m 406 738 q 164 676 254 738 q 67 497 74 615 l 264 497 q 301 580 269 554 q 396 606 333 606 q 493 582 464 606 q 522 510 522 558 q 490 452 522 471 q 339 421 458 433 q 107 349 171 406 q 44 196 44 294 q 110 38 44 94 q 289 -19 176 -19 q 531 69 443 -19 q 544 0 533 33 l 744 0 q 719 153 719 47 l 719 533 q 406 738 719 736 m 242 204 q 281 283 242 258 q 403 317 319 307 q 522 351 499 328 l 522 275 q 363 113 521 114 q 242 204 242 113 "},"b":{"ha":849,"x_min":75,"x_max":799,"o":"m 272 992 l 75 992 l 75 0 l 263 0 l 263 92 l 265 92 q 500 -19 325 -19 q 717 86 635 -19 q 799 360 799 192 q 716 632 799 526 q 501 738 633 738 q 366 708 425 738 q 275 631 307 679 l 272 631 l 272 992 m 265 358 q 310 525 265 461 q 432 589 354 589 q 556 526 511 589 q 601 358 601 464 q 555 190 601 251 q 433 129 508 129 q 311 192 357 129 q 265 358 265 254 "},"c":{"ha":797,"x_min":53,"x_max":761,"o":"m 419 738 q 153 632 253 738 q 53 349 53 526 q 154 83 53 185 q 415 -19 256 -19 q 651 56 560 -19 q 761 275 742 132 l 571 275 q 414 129 549 129 q 293 192 336 129 q 250 356 250 254 q 295 525 250 461 q 418 589 340 589 q 564 465 544 589 l 757 465 q 657 663 749 589 q 419 738 565 738 "},"d":{"ha":849,"x_min":44,"x_max":775,"o":"m 775 992 l 578 992 l 578 631 l 575 631 q 485 710 543 683 q 363 738 428 738 q 133 633 221 738 q 44 365 44 529 q 131 89 44 197 q 367 -19 218 -19 q 585 92 521 -19 l 588 92 l 588 0 l 775 0 l 775 992 m 242 360 q 285 526 242 464 q 414 589 329 589 q 540 529 496 589 q 585 361 585 469 q 542 191 585 253 q 415 129 500 129 q 288 195 335 129 q 242 360 242 261 "},"e":{"ha":797,"x_min":40,"x_max":757,"o":"m 407 738 q 226 693 310 738 q 91 558 142 649 q 40 358 40 468 q 90 153 40 242 q 224 24 140 65 q 407 -19 308 -18 q 743 222 667 -19 l 569 222 q 512 156 557 183 q 413 129 467 129 q 283 177 325 129 q 238 311 240 225 l 756 311 q 757 347 757 336 q 712 553 757 464 q 588 690 667 643 q 407 738 508 738 m 558 436 l 238 436 q 286 548 244 507 q 400 589 328 589 q 507 553 469 589 q 558 436 544 517 "},"f":{"ha":463,"x_min":0,"x_max":463,"o":"m 358 992 q 181 934 244 992 q 118 771 118 876 l 118 718 l 0 718 l 0 586 l 118 586 l 118 0 l 315 0 l 315 586 l 451 586 l 451 718 l 315 718 l 315 760 q 332 824 315 806 q 392 843 349 843 q 463 839 424 843 l 463 986 q 358 992 383 992 "},"g":{"ha":849,"x_min":53,"x_max":765,"o":"m 361 738 q 138 636 224 738 q 53 382 53 535 q 134 115 53 210 q 360 21 215 21 q 490 50 433 21 q 575 132 546 79 l 578 132 l 578 33 q 537 -95 578 -50 q 419 -140 496 -140 q 272 -42 296 -140 l 76 -42 q 170 -207 82 -142 q 394 -272 258 -272 q 669 -192 572 -272 q 765 44 765 -111 l 765 718 l 578 718 l 578 622 l 575 622 q 361 738 510 738 m 250 385 q 291 531 250 474 q 408 589 332 589 q 534 533 490 589 q 578 369 578 478 q 532 224 578 279 q 410 169 486 169 q 292 226 335 169 q 250 385 250 283 "},"h":{"ha":824,"x_min":75,"x_max":749,"o":"m 272 992 l 75 992 l 75 0 l 272 0 l 272 376 q 309 534 272 486 q 425 582 346 582 q 523 539 494 582 q 551 408 551 496 l 551 0 l 749 0 l 749 449 q 687 668 749 599 q 488 738 625 738 q 367 706 424 738 q 276 618 310 674 l 272 618 l 272 992 "},"i":{"ha":358,"x_min":81,"x_max":278,"o":"m 278 992 l 81 992 l 81 829 l 278 829 l 278 992 m 278 718 l 81 718 l 81 0 l 278 0 l 278 718 "},"j":{"ha":386,"x_min":-26,"x_max":290,"o":"m 290 992 l 93 992 l 93 829 l 290 829 l 290 992 m 290 718 l 93 718 l 93 -25 q 78 -73 94 -56 q 18 -90 61 -90 q -26 -85 -10 -90 l -26 -247 q 39 -253 0 -253 q 192 -230 140 -253 q 267 -162 244 -207 q 290 -40 290 -118 l 290 718 "},"k":{"ha":797,"x_min":93,"x_max":803,"o":"m 290 992 l 93 992 l 93 0 l 290 0 l 290 247 l 367 321 l 564 0 l 803 0 l 501 454 l 772 718 l 539 718 l 290 460 l 290 992 "},"l":{"ha":358,"x_min":81,"x_max":278,"o":"m 278 992 l 81 992 l 81 0 l 278 0 l 278 992 "},"m":{"ha":1258,"x_min":81,"x_max":1178,"o":"m 489 738 q 269 621 351 738 l 267 621 l 267 718 l 81 718 l 81 0 l 278 0 l 278 418 q 316 537 278 492 q 411 582 354 582 q 501 549 472 582 q 531 424 531 515 l 531 0 l 728 0 l 728 401 q 860 582 728 582 q 952 546 924 582 q 981 415 981 510 l 981 0 l 1178 0 l 1178 482 q 1115 669 1178 601 q 917 738 1051 738 q 699 618 781 738 q 489 738 646 738 "},"n":{"ha":824,"x_min":75,"x_max":749,"o":"m 488 738 q 267 618 340 738 l 263 618 l 263 718 l 75 718 l 75 0 l 272 0 l 272 374 q 308 533 272 485 q 425 582 344 582 q 523 539 494 582 q 551 407 551 496 l 551 0 l 749 0 l 749 447 q 687 668 749 599 q 488 738 625 738 "},"o":{"ha":849,"x_min":53,"x_max":796,"o":"m 424 738 q 155 635 257 738 q 53 358 53 532 q 153 85 53 190 q 424 -19 253 -19 q 694 84 592 -19 q 796 358 796 188 q 696 633 796 528 q 424 738 596 738 m 250 358 q 294 529 250 469 q 422 589 339 589 q 553 529 508 589 q 599 358 599 469 q 555 190 599 251 q 424 129 511 129 q 294 189 339 129 q 250 358 250 249 "},"p":{"ha":849,"x_min":75,"x_max":806,"o":"m 479 738 q 265 626 336 738 l 263 626 l 263 718 l 75 718 l 75 -253 l 272 -253 l 272 89 l 275 89 q 490 -19 349 -19 q 720 85 635 -19 q 806 351 806 189 q 717 633 806 529 q 479 738 628 738 m 265 357 q 309 528 265 467 q 435 589 353 589 q 563 527 517 589 q 608 357 608 465 q 566 190 608 251 q 438 129 524 129 q 310 190 354 129 q 265 357 265 251 "},"q":{"ha":849,"x_min":44,"x_max":775,"o":"m 367 738 q 133 631 221 738 q 44 353 44 524 q 85 154 44 238 q 194 26 125 71 q 349 -19 264 -19 q 483 8 422 -19 q 575 90 543 36 l 578 90 l 578 -253 l 775 -253 l 775 718 l 588 718 l 588 626 l 585 626 q 367 738 522 738 m 242 358 q 288 526 242 464 q 415 589 333 589 q 538 527 492 589 q 585 356 585 465 q 540 189 585 249 q 413 129 496 129 q 287 188 332 129 q 242 358 242 247 "},"r":{"ha":540,"x_min":75,"x_max":538,"o":"m 494 738 q 358 696 421 738 q 265 585 294 654 l 263 585 l 263 718 l 75 718 l 75 0 l 272 0 l 272 324 q 467 554 272 554 q 538 547 506 554 l 538 731 q 494 738 519 738 "},"s":{"ha":746,"x_min":40,"x_max":706,"o":"m 369 738 q 195 710 265 738 q 91 631 125 683 q 57 507 57 578 q 85 413 57 451 q 168 351 114 375 q 292 314 222 328 q 421 282 379 296 q 485 250 463 268 q 508 204 508 232 q 472 137 508 161 q 379 113 435 113 q 271 145 314 113 q 228 233 228 178 l 40 233 q 131 49 43 117 q 378 -19 219 -19 q 617 45 529 -19 q 706 231 706 110 q 680 326 706 288 q 599 393 654 365 q 408 447 543 421 q 327 468 364 456 q 272 497 290 481 q 254 539 254 514 q 281 589 254 572 q 364 606 308 606 q 461 583 428 606 q 499 508 494 560 l 686 508 q 595 679 676 621 q 369 738 514 738 "},"t":{"ha":489,"x_min":8,"x_max":469,"o":"m 325 933 l 128 933 l 128 718 l 8 718 l 8 586 l 128 586 l 128 165 q 183 31 128 69 q 353 -8 239 -8 q 469 -1 428 -8 l 469 153 q 408 147 444 147 q 342 164 358 147 q 325 231 325 181 l 325 586 l 469 586 l 469 718 l 325 718 l 325 933 "},"u":{"ha":824,"x_min":75,"x_max":749,"o":"m 272 718 l 75 718 l 75 272 q 135 52 75 124 q 336 -19 196 -19 q 557 100 483 -19 l 561 100 l 561 0 l 749 0 l 749 718 l 551 718 l 551 340 q 516 185 551 233 q 399 136 481 136 q 299 182 325 136 q 272 311 272 228 l 272 718 "},"v":{"ha":722,"x_min":7,"x_max":715,"o":"m 214 718 l 7 718 l 253 0 l 472 0 l 715 718 l 519 718 l 368 228 l 365 228 l 214 718 "},"w":{"ha":1131,"x_min":8,"x_max":1122,"o":"m 217 718 l 8 718 l 236 0 l 440 0 l 563 482 l 565 482 l 693 0 l 896 0 l 1122 718 l 919 718 l 788 232 l 785 232 l 663 718 l 471 718 l 351 231 l 349 231 l 217 718 "},"x":{"ha":746,"x_min":0,"x_max":746,"o":"m 247 718 l 22 718 l 258 378 l 0 0 l 221 0 l 371 226 l 521 0 l 746 0 l 481 382 l 717 718 l 499 718 l 374 531 l 247 718 "},"y":{"ha":721,"x_min":-8,"x_max":729,"o":"m 203 718 l -8 718 l 244 44 q 253 0 253 22 q 230 -65 253 -39 q 165 -90 207 -90 q 61 -83 114 -90 l 61 -246 q 185 -253 142 -253 q 341 -214 285 -253 q 429 -90 397 -175 l 729 718 l 525 718 l 368 226 l 365 226 l 203 718 "},"z":{"ha":721,"x_min":31,"x_max":690,"o":"m 664 718 l 58 718 l 58 569 l 404 569 l 31 149 l 31 0 l 690 0 l 690 149 l 290 149 l 664 569 l 664 718 "},"{":{"ha":463,"x_min":-12,"x_max":463,"o":"m 463 860 l 463 1015 l 292 1015 q 168 959 221 1015 q 115 829 115 903 l 115 564 q 78 477 115 510 q -12 442 40 444 l -12 321 q 77 288 39 321 q 115 206 115 254 l 115 -67 q 167 -197 115 -140 q 290 -253 219 -253 l 463 -253 l 463 -97 l 389 -97 q 313 1 313 -97 l 313 228 q 272 334 313 296 q 175 379 231 372 l 175 383 q 313 549 313 399 l 313 761 q 388 860 313 860 l 463 860 "},"|":{"ha":310,"x_min":81,"x_max":229,"o":"m 229 1092 l 81 1092 l 81 -297 l 229 -297 l 229 1092 "},"}":{"ha":463,"x_min":0,"x_max":475,"o":"m 175 1015 l 0 1015 l 0 860 l 75 860 q 150 761 150 860 l 150 544 q 183 436 150 482 q 288 383 215 390 l 288 379 q 190 333 231 374 q 150 226 150 292 l 150 3 q 75 -97 150 -97 l 0 -97 l 0 -253 l 175 -253 q 257 -228 217 -253 q 322 -162 297 -204 q 347 -67 347 -119 l 347 208 q 382 285 347 253 q 475 321 417 318 l 475 442 q 385 476 422 444 q 347 565 347 508 l 347 826 q 294 960 347 906 q 175 1015 240 1015 "},"~":{"ha":833,"x_min":93,"x_max":740,"o":"m 740 349 l 685 478 q 624 401 651 425 q 563 378 596 378 q 439 419 522 378 q 267 472 331 472 q 93 353 156 472 l 149 224 q 265 324 193 324 q 414 276 322 324 q 567 229 504 229 q 659 258 618 229 q 740 349 700 288 "}," ":{"ha":386,"x_min":0,"x_max":0,"o":""},"À":{"ha":951,"x_min":-10,"x_max":961,"o":"m 590 992 l 367 992 l -10 0 l 211 0 l 289 221 l 660 221 l 735 0 l 961 0 l 590 992 m 475 747 l 478 747 l 603 383 l 346 383 l 475 747 m 438 1279 l 219 1279 l 433 1082 l 571 1082 l 438 1279 "},"Á":{"ha":951,"x_min":-10,"x_max":961,"o":"m 590 992 l 367 992 l -10 0 l 211 0 l 289 221 l 660 221 l 735 0 l 961 0 l 590 992 m 475 747 l 478 747 l 603 383 l 346 383 l 475 747 m 733 1279 l 515 1279 l 382 1082 l 519 1082 l 733 1279 "},"Â":{"ha":951,"x_min":-10,"x_max":961,"o":"m 590 992 l 367 992 l -10 0 l 211 0 l 289 221 l 660 221 l 735 0 l 961 0 l 590 992 m 475 747 l 478 747 l 603 383 l 346 383 l 475 747 m 569 1279 l 389 1279 l 235 1082 l 388 1082 l 476 1194 l 563 1082 l 722 1082 l 569 1279 "},"Ã":{"ha":951,"x_min":-10,"x_max":961,"o":"m 590 992 l 367 992 l -10 0 l 211 0 l 289 221 l 660 221 l 735 0 l 961 0 l 590 992 m 475 747 l 478 747 l 603 383 l 346 383 l 475 747 m 385 1265 q 277 1218 322 1265 q 222 1096 232 1171 l 310 1096 q 372 1154 325 1154 q 469 1129 406 1154 q 576 1107 528 1107 q 677 1144 639 1107 q 732 1265 715 1182 l 643 1265 q 621 1226 635 1236 q 583 1217 607 1217 q 496 1239 553 1217 q 385 1265 428 1265 "},"Ä":{"ha":951,"x_min":-10,"x_max":961,"o":"m 590 992 l 367 992 l -10 0 l 211 0 l 289 221 l 660 221 l 735 0 l 961 0 l 590 992 m 475 747 l 478 747 l 603 383 l 346 383 l 475 747 m 428 1257 l 240 1257 l 240 1094 l 428 1094 l 428 1257 m 714 1257 l 526 1257 l 526 1094 l 714 1094 l 714 1257 "},"Å":{"ha":951,"x_min":-10,"x_max":961,"o":"m 590 992 l 367 992 l -10 0 l 211 0 l 289 221 l 660 221 l 735 0 l 961 0 l 590 992 m 475 747 l 478 747 l 603 383 l 346 383 l 475 747 m 478 1351 q 397 1331 435 1351 q 337 1272 358 1310 q 315 1193 315 1235 q 336 1114 315 1151 q 396 1056 357 1076 q 478 1035 435 1035 q 560 1056 522 1035 q 619 1115 599 1078 q 640 1193 640 1151 q 619 1272 640 1235 q 560 1331 599 1310 q 478 1351 522 1351 m 393 1193 q 417 1257 393 1233 q 476 1281 442 1281 q 540 1256 517 1281 q 563 1193 563 1232 q 539 1130 563 1154 q 478 1106 515 1106 q 417 1130 442 1106 q 393 1193 393 1154 "},"Æ":{"ha":1363,"x_min":-15,"x_max":1311,"o":"m 1300 992 l 458 992 l -15 0 l 217 0 l 317 221 l 628 221 l 628 0 l 1311 0 l 1311 183 l 839 183 l 839 426 l 1272 426 l 1272 596 l 839 596 l 839 808 l 1300 808 l 1300 992 m 581 808 l 628 808 l 628 383 l 389 383 l 581 808 "},"Ç":{"ha":1029,"x_min":53,"x_max":976,"o":"m 540 1015 q 188 870 322 1015 q 53 492 53 725 q 169 140 53 281 q 476 -19 286 0 l 410 -114 l 439 -147 q 492 -136 467 -136 q 534 -149 518 -136 q 550 -182 550 -161 q 488 -229 550 -229 q 378 -204 431 -229 l 349 -271 q 510 -301 431 -301 q 638 -268 593 -301 q 683 -172 683 -235 q 651 -93 683 -121 q 564 -65 618 -65 q 508 -75 528 -65 l 506 -72 l 542 -24 q 841 85 722 -24 q 976 382 960 194 l 765 382 q 693 217 751 275 q 540 160 635 160 q 343 249 415 160 q 271 492 271 338 q 344 742 271 651 q 540 832 417 832 q 682 783 621 832 q 757 658 743 733 l 968 658 q 832 917 950 819 q 540 1015 714 1015 "},"Ð":{"ha":1029,"x_min":-6,"x_max":974,"o":"m 521 992 l 96 992 l 96 581 l -6 581 l -6 444 l 96 444 l 96 0 l 526 0 q 854 135 735 0 q 974 501 974 271 q 853 861 974 731 q 521 992 732 992 m 536 581 l 314 581 l 314 808 l 468 808 q 687 727 618 808 q 756 482 756 646 q 691 263 756 342 q 508 183 626 183 l 314 183 l 314 444 l 536 444 l 536 581 "},"È":{"ha":900,"x_min":96,"x_max":849,"o":"m 838 992 l 96 992 l 96 0 l 849 0 l 849 183 l 314 183 l 314 426 l 794 426 l 794 596 l 314 596 l 314 808 l 838 808 l 838 992 m 408 1279 l 190 1279 l 404 1082 l 542 1082 l 408 1279 "},"É":{"ha":900,"x_min":96,"x_max":849,"o":"m 838 992 l 96 992 l 96 0 l 849 0 l 849 183 l 314 183 l 314 426 l 794 426 l 794 596 l 314 596 l 314 808 l 838 808 l 838 992 m 731 1279 l 513 1279 l 379 1082 l 517 1082 l 731 1279 "},"Ê":{"ha":900,"x_min":96,"x_max":849,"o":"m 838 992 l 96 992 l 96 0 l 849 0 l 849 183 l 314 183 l 314 426 l 794 426 l 794 596 l 314 596 l 314 808 l 838 808 l 838 992 m 553 1279 l 372 1279 l 218 1082 l 371 1082 l 460 1194 l 546 1082 l 706 1082 l 553 1279 "},"Ë":{"ha":900,"x_min":96,"x_max":849,"o":"m 838 992 l 96 992 l 96 0 l 849 0 l 849 183 l 314 183 l 314 426 l 794 426 l 794 596 l 314 596 l 314 808 l 838 808 l 838 992 m 411 1257 l 224 1257 l 224 1094 l 411 1094 l 411 1257 m 697 1257 l 510 1257 l 510 1094 l 697 1094 l 697 1257 "},"Ì":{"ha":410,"x_min":-50,"x_max":314,"o":"m 314 992 l 96 992 l 96 0 l 314 0 l 314 992 m 168 1279 l -50 1279 l 164 1082 l 301 1082 l 168 1279 "},"Í":{"ha":410,"x_min":96,"x_max":456,"o":"m 314 992 l 96 992 l 96 0 l 314 0 l 314 992 m 456 1279 l 238 1279 l 104 1082 l 242 1082 l 456 1279 "},"Î":{"ha":410,"x_min":-39,"x_max":449,"o":"m 314 992 l 96 992 l 96 0 l 314 0 l 314 992 m 296 1279 l 115 1279 l -39 1082 l 114 1082 l 203 1194 l 289 1082 l 449 1082 l 296 1279 "},"Ï":{"ha":410,"x_min":-33,"x_max":440,"o":"m 314 992 l 96 992 l 96 0 l 314 0 l 314 992 m 154 1257 l -33 1257 l -33 1094 l 154 1094 l 154 1257 m 440 1257 l 253 1257 l 253 1094 l 440 1094 l 440 1257 "},"Ñ":{"ha":1029,"x_min":96,"x_max":933,"o":"m 313 992 l 96 992 l 96 0 l 300 0 l 300 664 l 303 664 l 715 0 l 933 0 l 933 992 l 729 992 l 729 326 l 726 326 l 313 992 m 415 1265 q 308 1218 353 1265 q 253 1096 263 1171 l 340 1096 q 403 1154 356 1154 q 500 1129 436 1154 q 607 1107 558 1107 q 708 1144 669 1107 q 763 1265 746 1182 l 674 1265 q 651 1226 665 1236 q 614 1217 638 1217 q 526 1239 583 1217 q 415 1265 458 1265 "},"Ò":{"ha":1081,"x_min":53,"x_max":1028,"o":"m 540 1015 q 188 869 322 1015 q 53 492 53 722 q 187 121 53 265 q 540 -24 321 -24 q 893 121 758 -24 q 1028 492 1028 265 q 894 869 1028 724 q 540 1015 760 1015 m 271 492 q 342 742 271 651 q 539 832 414 832 q 738 742 667 832 q 810 492 810 651 q 738 249 810 339 q 540 160 665 160 q 342 251 413 160 q 271 492 271 342 m 488 1279 l 269 1279 l 483 1082 l 621 1082 l 488 1279 "},"Ó":{"ha":1081,"x_min":53,"x_max":1028,"o":"m 540 1015 q 188 869 322 1015 q 53 492 53 722 q 187 121 53 265 q 540 -24 321 -24 q 893 121 758 -24 q 1028 492 1028 265 q 894 869 1028 724 q 540 1015 760 1015 m 271 492 q 342 742 271 651 q 539 832 414 832 q 738 742 667 832 q 810 492 810 651 q 738 249 810 339 q 540 160 665 160 q 342 251 413 160 q 271 492 271 342 m 811 1279 l 593 1279 l 460 1082 l 597 1082 l 811 1279 "},"Ô":{"ha":1081,"x_min":53,"x_max":1028,"o":"m 540 1015 q 188 869 322 1015 q 53 492 53 722 q 187 121 53 265 q 540 -24 321 -24 q 893 121 758 -24 q 1028 492 1028 265 q 894 869 1028 724 q 540 1015 760 1015 m 271 492 q 342 742 271 651 q 539 832 414 832 q 738 742 667 832 q 810 492 810 651 q 738 249 810 339 q 540 160 665 160 q 342 251 413 160 q 271 492 271 342 m 633 1279 l 453 1279 l 299 1082 l 451 1082 l 540 1194 l 626 1082 l 786 1082 l 633 1279 "},"Õ":{"ha":1081,"x_min":53,"x_max":1028,"o":"m 540 1015 q 188 869 322 1015 q 53 492 53 722 q 187 121 53 265 q 540 -24 321 -24 q 893 121 758 -24 q 1028 492 1028 265 q 894 869 1028 724 q 540 1015 760 1015 m 271 492 q 342 742 271 651 q 539 832 414 832 q 738 742 667 832 q 810 492 810 651 q 738 249 810 339 q 540 160 665 160 q 342 251 413 160 q 271 492 271 342 m 449 1265 q 341 1218 386 1265 q 286 1096 296 1171 l 374 1096 q 436 1154 389 1154 q 533 1129 469 1154 q 640 1107 592 1107 q 741 1144 703 1107 q 796 1265 779 1182 l 707 1265 q 685 1226 699 1236 q 647 1217 671 1217 q 560 1239 617 1217 q 449 1265 492 1265 "},"Ö":{"ha":1081,"x_min":53,"x_max":1028,"o":"m 540 1015 q 188 869 322 1015 q 53 492 53 722 q 187 121 53 265 q 540 -24 321 -24 q 893 121 758 -24 q 1028 492 1028 265 q 894 869 1028 724 q 540 1015 760 1015 m 271 492 q 342 742 271 651 q 539 832 414 832 q 738 742 667 832 q 810 492 810 651 q 738 249 810 339 q 540 160 665 160 q 342 251 413 160 q 271 492 271 342 m 492 1257 l 304 1257 l 304 1094 l 492 1094 l 492 1257 m 778 1257 l 590 1257 l 590 1094 l 778 1094 l 778 1257 "},"Ø":{"ha":1081,"x_min":47,"x_max":1033,"o":"m 1033 971 l 964 1032 l 853 908 q 540 1015 726 1015 q 186 869 319 1015 q 53 492 53 722 q 167 146 53 285 l 47 14 l 115 -46 l 231 82 q 540 -24 358 -24 q 892 119 756 -24 q 1028 492 1028 263 q 917 842 1028 703 l 1033 971 m 271 492 q 342 742 271 651 q 539 832 414 832 q 721 761 650 832 l 310 304 q 271 492 271 382 m 363 228 l 772 681 q 810 492 810 600 q 737 249 810 339 q 540 160 664 160 q 363 228 431 160 "},"Œ":{"ha":1518,"x_min":53,"x_max":1460,"o":"m 518 1015 q 276 946 383 1015 q 111 755 169 876 q 53 490 53 633 q 181 122 53 268 q 514 -24 308 -24 q 645 1 582 -24 q 753 75 708 26 l 756 75 l 756 0 l 1460 0 l 1460 183 l 958 183 l 958 426 l 1408 426 l 1408 596 l 958 596 l 958 808 l 1450 808 l 1450 992 l 756 992 l 756 921 l 753 921 q 518 1015 681 1015 m 271 493 q 339 739 271 646 q 532 832 407 832 q 686 774 625 832 q 747 624 747 717 l 747 385 q 688 221 747 282 q 529 160 628 160 q 341 250 411 160 q 271 493 271 340 "},"Š":{"ha":901,"x_min":33,"x_max":868,"o":"m 438 1015 q 260 982 346 1015 q 120 879 174 949 q 67 717 67 810 q 99 588 67 642 q 192 497 131 535 q 386 426 253 460 q 550 383 501 400 q 628 338 599 365 q 657 269 657 310 q 603 177 657 208 q 463 146 550 146 q 304 194 364 146 q 244 329 244 242 l 33 329 l 33 322 q 152 69 33 161 q 456 -24 271 -24 q 672 15 576 -24 q 818 126 768 53 q 868 294 868 200 q 833 433 868 376 q 732 525 799 489 q 542 592 665 561 q 376 636 424 621 q 303 671 329 651 q 278 733 278 690 q 319 816 278 786 q 429 846 361 846 q 573 808 526 846 q 624 696 619 771 l 835 696 q 727 932 835 849 q 438 1015 619 1015 m 372 1279 l 213 1279 l 365 1082 l 546 1082 l 700 1279 l 547 1279 l 458 1167 l 372 1279 "},"Þ":{"ha":926,"x_min":96,"x_max":886,"o":"m 314 992 l 96 992 l 96 0 l 314 0 l 314 221 l 543 221 q 793 306 700 221 q 886 539 886 390 q 796 771 886 685 q 546 857 706 857 l 314 857 l 314 992 m 488 390 l 314 390 l 314 688 l 485 688 q 629 653 583 688 q 675 539 675 618 q 629 425 675 460 q 488 390 583 390 "},"Ù":{"ha":1029,"x_min":92,"x_max":938,"o":"m 310 992 l 92 992 l 92 371 q 195 81 92 185 q 514 -24 299 -24 q 831 81 725 -24 q 938 371 938 185 l 938 992 l 719 992 l 719 371 q 674 210 719 261 q 514 160 628 160 q 359 210 408 160 q 310 371 310 261 l 310 992 m 461 1279 l 243 1279 l 457 1082 l 594 1082 l 461 1279 "},"Ú":{"ha":1029,"x_min":92,"x_max":938,"o":"m 310 992 l 92 992 l 92 371 q 195 81 92 185 q 514 -24 299 -24 q 831 81 725 -24 q 938 371 938 185 l 938 992 l 719 992 l 719 371 q 674 210 719 261 q 514 160 628 160 q 359 210 408 160 q 310 371 310 261 l 310 992 m 785 1279 l 567 1279 l 433 1082 l 571 1082 l 785 1279 "},"Û":{"ha":1029,"x_min":92,"x_max":938,"o":"m 310 992 l 92 992 l 92 371 q 195 81 92 185 q 514 -24 299 -24 q 831 81 725 -24 q 938 371 938 185 l 938 992 l 719 992 l 719 371 q 674 210 719 261 q 514 160 628 160 q 359 210 408 160 q 310 371 310 261 l 310 992 m 607 1279 l 426 1279 l 272 1082 l 425 1082 l 514 1194 l 600 1082 l 760 1082 l 607 1279 "},"Ü":{"ha":1029,"x_min":92,"x_max":938,"o":"m 310 992 l 92 992 l 92 371 q 195 81 92 185 q 514 -24 299 -24 q 831 81 725 -24 q 938 371 938 185 l 938 992 l 719 992 l 719 371 q 674 210 719 261 q 514 160 628 160 q 359 210 408 160 q 310 371 310 261 l 310 992 m 465 1257 l 278 1257 l 278 1094 l 465 1094 l 465 1257 m 751 1257 l 564 1257 l 564 1094 l 751 1094 l 751 1257 "},"Ý":{"ha":926,"x_min":-12,"x_max":939,"o":"m 233 992 l -12 992 l 353 386 l 353 0 l 571 0 l 571 381 l 939 992 l 696 992 l 465 600 l 233 992 m 738 1279 l 519 1279 l 386 1082 l 524 1082 l 738 1279 "},"Ÿ":{"ha":926,"x_min":-12,"x_max":939,"o":"m 233 992 l -12 992 l 353 386 l 353 0 l 571 0 l 571 381 l 939 992 l 696 992 l 465 600 l 233 992 m 418 1257 l 231 1257 l 231 1094 l 418 1094 l 418 1257 m 704 1257 l 517 1257 l 517 1094 l 704 1094 l 704 1257 "},"Ž":{"ha":900,"x_min":32,"x_max":868,"o":"m 854 992 l 74 992 l 74 808 l 564 808 l 32 172 l 32 0 l 868 0 l 868 183 l 322 183 l 854 819 l 854 992 m 379 1279 l 219 1279 l 372 1082 l 553 1082 l 707 1279 l 554 1279 l 465 1167 l 379 1279 "},"à":{"ha":797,"x_min":44,"x_max":744,"o":"m 406 738 q 164 676 254 738 q 67 497 74 615 l 264 497 q 301 580 269 554 q 396 606 333 606 q 493 582 464 606 q 522 510 522 558 q 490 452 522 471 q 339 421 458 433 q 107 349 171 406 q 44 196 44 294 q 110 38 44 94 q 289 -19 176 -19 q 531 69 443 -19 q 544 0 533 33 l 744 0 q 719 153 719 47 l 719 533 q 406 738 719 736 m 242 204 q 281 283 242 258 q 403 317 319 307 q 522 351 499 328 l 522 275 q 363 113 521 114 q 242 204 242 113 m 361 1015 l 143 1015 l 357 818 l 494 818 l 361 1015 "},"á":{"ha":797,"x_min":44,"x_max":744,"o":"m 406 738 q 164 676 254 738 q 67 497 74 615 l 264 497 q 301 580 269 554 q 396 606 333 606 q 493 582 464 606 q 522 510 522 558 q 490 452 522 471 q 339 421 458 433 q 107 349 171 406 q 44 196 44 294 q 110 38 44 94 q 289 -19 176 -19 q 531 69 443 -19 q 544 0 533 33 l 744 0 q 719 153 719 47 l 719 533 q 406 738 719 736 m 242 204 q 281 283 242 258 q 403 317 319 307 q 522 351 499 328 l 522 275 q 363 113 521 114 q 242 204 242 113 m 674 1015 l 456 1015 l 322 818 l 460 818 l 674 1015 "},"â":{"ha":797,"x_min":44,"x_max":744,"o":"m 406 738 q 164 676 254 738 q 67 497 74 615 l 264 497 q 301 580 269 554 q 396 606 333 606 q 493 582 464 606 q 522 510 522 558 q 490 452 522 471 q 339 421 458 433 q 107 349 171 406 q 44 196 44 294 q 110 38 44 94 q 289 -19 176 -19 q 531 69 443 -19 q 544 0 533 33 l 744 0 q 719 153 719 47 l 719 533 q 406 738 719 736 m 242 204 q 281 283 242 258 q 403 317 319 307 q 522 351 499 328 l 522 275 q 363 113 521 114 q 242 204 242 113 m 501 1015 l 321 1015 l 167 818 l 319 818 l 408 931 l 494 818 l 654 818 l 501 1015 "},"ã":{"ha":797,"x_min":44,"x_max":744,"o":"m 406 738 q 164 676 254 738 q 67 497 74 615 l 264 497 q 301 580 269 554 q 396 606 333 606 q 493 582 464 606 q 522 510 522 558 q 490 452 522 471 q 339 421 458 433 q 107 349 171 406 q 44 196 44 294 q 110 38 44 94 q 289 -19 176 -19 q 531 69 443 -19 q 544 0 533 33 l 744 0 q 719 153 719 47 l 719 533 q 406 738 719 736 m 242 204 q 281 283 242 258 q 403 317 319 307 q 522 351 499 328 l 522 275 q 363 113 521 114 q 242 204 242 113 m 317 1001 q 208 953 253 1001 q 154 832 164 906 l 242 832 q 304 890 258 890 q 401 865 339 890 q 508 843 463 843 q 614 886 576 843 q 664 1001 651 929 l 575 1001 q 554 965 568 976 q 515 953 540 953 q 421 978 482 953 q 317 1001 360 1001 "},"ä":{"ha":797,"x_min":44,"x_max":744,"o":"m 406 738 q 164 676 254 738 q 67 497 74 615 l 264 497 q 301 580 269 554 q 396 606 333 606 q 493 582 464 606 q 522 510 522 558 q 490 452 522 471 q 339 421 458 433 q 107 349 171 406 q 44 196 44 294 q 110 38 44 94 q 289 -19 176 -19 q 531 69 443 -19 q 544 0 533 33 l 744 0 q 719 153 719 47 l 719 533 q 406 738 719 736 m 242 204 q 281 283 242 258 q 403 317 319 307 q 522 351 499 328 l 522 275 q 363 113 521 114 q 242 204 242 113 m 360 993 l 172 993 l 172 831 l 360 831 l 360 993 m 646 993 l 458 993 l 458 831 l 646 831 l 646 993 "},"å":{"ha":797,"x_min":44,"x_max":744,"o":"m 406 738 q 164 676 254 738 q 67 497 74 615 l 264 497 q 301 580 269 554 q 396 606 333 606 q 493 582 464 606 q 522 510 522 558 q 490 452 522 471 q 339 421 458 433 q 107 349 171 406 q 44 196 44 294 q 110 38 44 94 q 289 -19 176 -19 q 531 69 443 -19 q 544 0 533 33 l 744 0 q 719 153 719 47 l 719 533 q 406 738 719 736 m 242 204 q 281 283 242 258 q 403 317 319 307 q 522 351 499 328 l 522 275 q 363 113 521 114 q 242 204 242 113 m 411 1117 q 329 1098 367 1117 q 266 1039 292 1079 q 240 950 240 999 q 264 863 240 903 q 326 803 288 822 q 410 783 365 783 q 495 804 456 783 q 558 864 535 825 q 581 950 581 903 q 559 1036 581 999 q 499 1095 538 1074 q 411 1117 461 1117 m 322 950 q 347 1017 322 990 q 410 1043 371 1043 q 476 1017 453 1043 q 499 950 499 990 q 474 883 499 908 q 410 857 450 857 q 346 883 369 857 q 322 950 322 910 "},"æ":{"ha":1260,"x_min":53,"x_max":1219,"o":"m 410 738 q 163 672 251 738 q 72 494 75 607 l 269 494 q 407 606 276 606 q 535 514 535 606 q 491 452 535 469 q 336 421 447 435 q 171 383 222 404 q 86 315 119 361 q 53 194 53 268 q 124 37 53 93 q 321 -19 196 -19 q 490 11 411 -19 q 614 103 568 42 q 882 -19 699 -19 q 1092 47 1004 -19 q 1213 225 1181 113 l 1021 225 q 878 113 1000 113 q 756 169 804 113 q 707 303 707 225 l 707 311 l 1219 311 q 1131 625 1218 513 q 889 738 1044 738 q 747 714 801 738 q 649 640 693 690 q 553 713 617 688 q 410 738 489 738 m 1022 436 l 707 436 q 755 560 708 514 q 867 606 801 606 q 981 558 939 606 q 1022 436 1022 510 m 250 206 q 286 278 250 253 q 393 311 322 303 q 518 340 494 325 l 535 350 l 535 260 q 487 153 535 193 q 372 113 439 113 q 250 206 250 113 "},"ç":{"ha":797,"x_min":53,"x_max":761,"o":"m 419 738 q 153 631 253 738 q 53 349 53 525 q 137 101 53 201 q 368 -17 221 0 l 299 -114 l 328 -147 q 381 -136 356 -136 q 423 -149 407 -136 q 439 -182 439 -161 q 376 -229 439 -229 q 267 -204 319 -229 l 238 -271 q 399 -301 319 -301 q 527 -268 482 -301 q 572 -172 572 -235 q 540 -94 572 -122 q 453 -65 508 -65 q 397 -75 419 -65 l 394 -72 l 433 -19 q 660 65 578 -14 q 761 275 743 144 l 571 275 q 414 129 550 129 q 293 192 336 129 q 250 356 250 254 q 294 525 250 461 q 418 589 339 589 q 564 465 544 589 l 757 465 q 656 664 749 590 q 419 738 564 738 "},"ð":{"ha":849,"x_min":53,"x_max":796,"o":"m 343 1032 l 240 935 l 343 888 l 215 828 l 279 746 l 442 824 q 576 633 531 758 l 574 633 q 379 703 499 703 q 140 603 228 703 q 53 347 53 504 q 156 83 53 185 q 424 -19 258 -19 q 692 91 589 -19 q 796 378 796 201 q 744 669 796 544 q 583 893 693 793 l 707 950 l 643 1032 l 496 963 q 343 1032 438 1000 m 250 357 q 293 510 250 449 q 421 571 336 571 q 551 513 503 571 q 599 357 599 456 q 554 189 599 249 q 424 129 510 129 q 296 188 342 129 q 250 357 250 246 m 235 992 "},"è":{"ha":797,"x_min":40,"x_max":757,"o":"m 407 738 q 226 693 310 738 q 91 558 142 649 q 40 358 40 468 q 90 153 40 242 q 224 24 140 65 q 407 -19 308 -18 q 743 222 667 -19 l 569 222 q 512 156 557 183 q 413 129 467 129 q 283 177 325 129 q 238 311 240 225 l 756 311 q 757 347 757 336 q 712 553 757 464 q 588 690 667 643 q 407 738 508 738 m 558 436 l 238 436 q 286 548 244 507 q 400 589 328 589 q 507 553 469 589 q 558 436 544 517 m 360 1015 l 142 1015 l 356 818 l 493 818 l 360 1015 "},"é":{"ha":797,"x_min":40,"x_max":757,"o":"m 407 738 q 226 693 310 738 q 91 558 142 649 q 40 358 40 468 q 90 153 40 242 q 224 24 140 65 q 407 -19 308 -18 q 743 222 667 -19 l 569 222 q 512 156 557 183 q 413 129 467 129 q 283 177 325 129 q 238 311 240 225 l 756 311 q 757 347 757 336 q 712 553 757 464 q 588 690 667 643 q 407 738 508 738 m 558 436 l 238 436 q 286 548 244 507 q 400 589 328 589 q 507 553 469 589 q 558 436 544 517 m 672 1015 l 454 1015 l 321 818 l 458 818 l 672 1015 "},"ê":{"ha":797,"x_min":40,"x_max":757,"o":"m 407 738 q 226 693 310 738 q 91 558 142 649 q 40 358 40 468 q 90 153 40 242 q 224 24 140 65 q 407 -19 308 -18 q 743 222 667 -19 l 569 222 q 512 156 557 183 q 413 129 467 129 q 283 177 325 129 q 238 311 240 225 l 756 311 q 757 347 757 336 q 712 553 757 464 q 588 690 667 643 q 407 738 508 738 m 558 436 l 238 436 q 286 548 244 507 q 400 589 328 589 q 507 553 469 589 q 558 436 544 517 m 500 1015 l 319 1015 l 165 818 l 318 818 l 407 931 l 493 818 l 653 818 l 500 1015 "},"ë":{"ha":797,"x_min":40,"x_max":757,"o":"m 407 738 q 226 693 310 738 q 91 558 142 649 q 40 358 40 468 q 90 153 40 242 q 224 24 140 65 q 407 -19 308 -18 q 743 222 667 -19 l 569 222 q 512 156 557 183 q 413 129 467 129 q 283 177 325 129 q 238 311 240 225 l 756 311 q 757 347 757 336 q 712 553 757 464 q 588 690 667 643 q 407 738 508 738 m 558 436 l 238 436 q 286 548 244 507 q 400 589 328 589 q 507 553 469 589 q 558 436 544 517 m 358 993 l 171 993 l 171 831 l 358 831 l 358 993 m 644 993 l 457 993 l 457 831 l 644 831 l 644 993 "},"ı":{"ha":358,"x_min":81,"x_max":278,"o":"m 278 718 l 81 718 l 81 0 l 278 0 l 278 718 "},"ì":{"ha":358,"x_min":-72,"x_max":279,"o":"m 278 718 l 81 718 l 81 0 l 278 0 l 278 718 m 146 1015 l -72 1015 l 142 818 l 279 818 l 146 1015 "},"í":{"ha":358,"x_min":79,"x_max":431,"o":"m 278 718 l 81 718 l 81 0 l 278 0 l 278 718 m 431 1015 l 213 1015 l 79 818 l 217 818 l 431 1015 "},"î":{"ha":358,"x_min":-62,"x_max":425,"o":"m 278 718 l 81 718 l 81 0 l 278 0 l 278 718 m 272 1015 l 92 1015 l -62 818 l 90 818 l 179 931 l 265 818 l 425 818 l 272 1015 "},"ï":{"ha":358,"x_min":-57,"x_max":417,"o":"m 278 718 l 81 718 l 81 0 l 278 0 l 278 718 m 131 993 l -57 993 l -57 831 l 131 831 l 131 993 m 417 993 l 229 993 l 229 831 l 417 831 l 417 993 "},"ñ":{"ha":824,"x_min":75,"x_max":749,"o":"m 488 738 q 267 618 340 738 l 263 618 l 263 718 l 75 718 l 75 0 l 272 0 l 272 374 q 308 533 272 485 q 425 582 344 582 q 523 539 494 582 q 551 407 551 496 l 551 0 l 749 0 l 749 447 q 687 668 749 599 q 488 738 625 738 m 318 1001 q 210 953 254 1001 q 156 832 165 906 l 243 832 q 306 890 260 890 q 403 865 340 890 q 510 843 464 843 q 615 886 578 843 q 665 1001 653 929 l 576 1001 q 556 965 569 976 q 517 953 542 953 q 422 978 483 953 q 318 1001 361 1001 "},"ò":{"ha":849,"x_min":53,"x_max":796,"o":"m 424 738 q 155 635 257 738 q 53 358 53 532 q 153 85 53 190 q 424 -19 253 -19 q 694 84 592 -19 q 796 358 796 188 q 696 633 796 528 q 424 738 596 738 m 250 358 q 294 529 250 469 q 422 589 339 589 q 553 529 508 589 q 599 358 599 469 q 555 190 599 251 q 424 129 511 129 q 294 189 339 129 q 250 358 250 249 m 378 1015 l 160 1015 l 374 818 l 511 818 l 378 1015 "},"ó":{"ha":849,"x_min":53,"x_max":796,"o":"m 424 738 q 155 635 257 738 q 53 358 53 532 q 153 85 53 190 q 424 -19 253 -19 q 694 84 592 -19 q 796 358 796 188 q 696 633 796 528 q 424 738 596 738 m 250 358 q 294 529 250 469 q 422 589 339 589 q 553 529 508 589 q 599 358 599 469 q 555 190 599 251 q 424 129 511 129 q 294 189 339 129 q 250 358 250 249 m 690 1015 l 472 1015 l 339 818 l 476 818 l 690 1015 "},"ô":{"ha":849,"x_min":53,"x_max":796,"o":"m 424 738 q 155 635 257 738 q 53 358 53 532 q 153 85 53 190 q 424 -19 253 -19 q 694 84 592 -19 q 796 358 796 188 q 696 633 796 528 q 424 738 596 738 m 250 358 q 294 529 250 469 q 422 589 339 589 q 553 529 508 589 q 599 358 599 469 q 555 190 599 251 q 424 129 511 129 q 294 189 339 129 q 250 358 250 249 m 518 1015 l 338 1015 l 183 818 l 336 818 l 425 931 l 511 818 l 671 818 l 518 1015 "},"õ":{"ha":849,"x_min":53,"x_max":796,"o":"m 424 738 q 155 635 257 738 q 53 358 53 532 q 153 85 53 190 q 424 -19 253 -19 q 694 84 592 -19 q 796 358 796 188 q 696 633 796 528 q 424 738 596 738 m 250 358 q 294 529 250 469 q 422 589 339 589 q 553 529 508 589 q 599 358 599 469 q 555 190 599 251 q 424 129 511 129 q 294 189 339 129 q 250 358 250 249 m 333 1001 q 225 953 269 1001 q 171 832 181 906 l 258 832 q 321 890 275 890 q 418 865 356 890 q 525 843 479 843 q 631 886 593 843 q 681 1001 668 929 l 592 1001 q 571 965 585 976 q 532 953 557 953 q 438 978 499 953 q 333 1001 376 1001 "},"ö":{"ha":849,"x_min":53,"x_max":796,"o":"m 424 738 q 155 635 257 738 q 53 358 53 532 q 153 85 53 190 q 424 -19 253 -19 q 694 84 592 -19 q 796 358 796 188 q 696 633 796 528 q 424 738 596 738 m 250 358 q 294 529 250 469 q 422 589 339 589 q 553 529 508 589 q 599 358 599 469 q 555 190 599 251 q 424 129 511 129 q 294 189 339 129 q 250 358 250 249 m 376 993 l 189 993 l 189 831 l 376 831 l 376 993 m 663 993 l 475 993 l 475 831 l 663 831 l 663 993 "},"ø":{"ha":849,"x_min":53,"x_max":796,"o":"m 724 756 l 650 671 q 424 738 556 738 q 155 635 257 738 q 53 358 53 532 q 144 96 53 196 l 61 1 l 113 -43 l 194 50 q 424 -19 289 -19 q 694 83 592 -19 q 796 358 796 186 q 700 626 796 524 l 775 711 l 724 756 m 250 358 q 294 528 250 468 q 422 589 339 589 q 539 544 497 589 l 271 239 q 250 358 250 286 m 306 176 l 576 485 q 599 358 599 428 q 555 190 599 251 q 424 129 511 129 q 306 176 349 129 "},"œ":{"ha":1286,"x_min":53,"x_max":1246,"o":"m 406 738 q 231 694 310 738 q 102 563 151 651 q 53 363 53 474 q 97 162 53 251 q 217 26 140 72 q 390 -19 293 -19 q 540 11 471 -19 q 644 103 608 42 q 751 11 683 42 q 904 -19 818 -19 q 1115 44 1025 -19 q 1240 228 1204 108 l 1049 228 q 904 129 1010 129 q 778 178 824 129 q 733 311 733 226 l 1246 311 q 1152 626 1244 515 q 894 738 1060 738 q 755 706 824 738 q 653 624 686 674 q 406 738 574 738 m 250 356 q 292 527 250 465 q 406 589 333 589 q 522 531 483 589 q 561 361 561 472 q 521 188 561 247 q 403 129 481 129 q 290 193 329 129 q 250 356 250 257 m 1049 436 l 733 436 q 779 548 738 507 q 889 589 821 589 q 1006 549 967 589 q 1049 436 1046 508 "},"š":{"ha":746,"x_min":40,"x_max":706,"o":"m 369 738 q 195 710 265 738 q 91 631 125 683 q 57 507 57 578 q 85 413 57 451 q 168 351 114 375 q 292 314 222 328 q 421 282 379 296 q 485 250 463 268 q 508 204 508 232 q 472 137 508 161 q 379 113 435 113 q 271 145 314 113 q 228 233 228 178 l 40 233 q 131 49 43 117 q 378 -19 219 -19 q 617 45 529 -19 q 706 231 706 110 q 680 326 706 288 q 599 393 654 365 q 408 447 543 421 q 327 468 364 456 q 272 497 290 481 q 254 539 254 514 q 281 589 254 572 q 364 606 308 606 q 461 583 428 606 q 499 508 494 560 l 686 508 q 595 679 676 621 q 369 738 514 738 m 293 1015 l 133 1015 l 286 818 l 467 818 l 621 1015 l 468 1015 l 379 903 l 293 1015 "},"ß":{"ha":849,"x_min":78,"x_max":771,"o":"m 404 1015 q 78 686 78 1015 l 78 0 l 275 0 l 275 717 q 305 814 275 775 q 400 853 335 853 q 532 729 532 853 q 491 639 532 672 q 386 606 450 606 l 356 608 l 356 478 l 404 481 q 530 437 486 481 q 574 313 574 393 q 527 190 574 238 q 411 143 481 143 q 356 150 379 143 l 356 -11 q 468 -19 415 -19 q 683 75 596 -19 q 771 304 771 169 q 724 467 771 400 q 590 553 676 535 l 590 556 q 684 627 649 574 q 719 750 719 681 q 633 944 719 872 q 404 1015 546 1015 "},"þ":{"ha":849,"x_min":75,"x_max":806,"o":"m 272 992 l 75 992 l 75 -253 l 272 -253 l 272 89 l 275 89 q 490 -19 351 -19 q 719 83 633 -19 q 806 351 806 186 q 718 631 806 525 q 481 738 631 738 q 275 626 343 738 l 272 626 l 272 992 m 265 357 q 310 527 265 465 q 435 589 354 589 q 561 527 514 589 q 608 357 608 465 q 567 193 608 257 q 438 129 526 129 q 312 188 358 129 q 265 357 265 247 "},"ù":{"ha":824,"x_min":75,"x_max":749,"o":"m 272 718 l 75 718 l 75 272 q 135 52 75 124 q 336 -19 196 -19 q 557 100 483 -19 l 561 100 l 561 0 l 749 0 l 749 718 l 551 718 l 551 340 q 516 185 551 233 q 399 136 481 136 q 299 182 325 136 q 272 311 272 228 l 272 718 m 367 1015 l 149 1015 l 363 818 l 500 818 l 367 1015 "},"ú":{"ha":824,"x_min":75,"x_max":749,"o":"m 272 718 l 75 718 l 75 272 q 135 52 75 124 q 336 -19 196 -19 q 557 100 483 -19 l 561 100 l 561 0 l 749 0 l 749 718 l 551 718 l 551 340 q 516 185 551 233 q 399 136 481 136 q 299 182 325 136 q 272 311 272 228 l 272 718 m 679 1015 l 461 1015 l 328 818 l 465 818 l 679 1015 "},"û":{"ha":824,"x_min":75,"x_max":749,"o":"m 272 718 l 75 718 l 75 272 q 135 52 75 124 q 336 -19 196 -19 q 557 100 483 -19 l 561 100 l 561 0 l 749 0 l 749 718 l 551 718 l 551 340 q 516 185 551 233 q 399 136 481 136 q 299 182 325 136 q 272 311 272 228 l 272 718 m 507 1015 l 326 1015 l 172 818 l 325 818 l 414 931 l 500 818 l 660 818 l 507 1015 "},"ü":{"ha":824,"x_min":75,"x_max":749,"o":"m 272 718 l 75 718 l 75 272 q 135 52 75 124 q 336 -19 196 -19 q 557 100 483 -19 l 561 100 l 561 0 l 749 0 l 749 718 l 551 718 l 551 340 q 516 185 551 233 q 399 136 481 136 q 299 182 325 136 q 272 311 272 228 l 272 718 m 365 993 l 178 993 l 178 831 l 365 831 l 365 993 m 651 993 l 464 993 l 464 831 l 651 831 l 651 993 "},"ý":{"ha":721,"x_min":-8,"x_max":729,"o":"m 203 718 l -8 718 l 244 44 q 253 0 253 22 q 230 -65 253 -39 q 165 -90 207 -90 q 61 -83 114 -90 l 61 -246 q 185 -253 142 -253 q 341 -214 285 -253 q 429 -90 397 -175 l 729 718 l 525 718 l 368 226 l 365 226 l 203 718 m 632 1015 l 414 1015 l 281 818 l 418 818 l 632 1015 "},"ÿ":{"ha":721,"x_min":-8,"x_max":729,"o":"m 203 718 l -8 718 l 244 44 q 253 0 253 22 q 230 -65 253 -39 q 165 -90 207 -90 q 61 -83 114 -90 l 61 -246 q 185 -253 142 -253 q 341 -214 285 -253 q 429 -90 397 -175 l 729 718 l 525 718 l 368 226 l 365 226 l 203 718 m 318 993 l 131 993 l 131 831 l 318 831 l 318 993 m 604 993 l 417 993 l 417 831 l 604 831 l 604 993 "},"ž":{"ha":721,"x_min":31,"x_max":690,"o":"m 664 718 l 58 718 l 58 569 l 404 569 l 31 149 l 31 0 l 690 0 l 690 149 l 290 149 l 664 569 l 664 718 m 279 1015 l 119 1015 l 272 818 l 453 818 l 607 1015 l 454 1015 l 365 903 l 279 1015 "},"":{"ha":360,"x_min":-67,"x_max":285,"o":"m 151 1279 l -67 1279 l 147 1082 l 285 1082 l 151 1279 "},"´":{"ha":360,"x_min":75,"x_max":426,"o":"m 426 1015 l 208 1015 l 75 818 l 213 818 l 426 1015 "},"":{"ha":360,"x_min":76,"x_max":428,"o":"m 428 1279 l 210 1279 l 76 1082 l 214 1082 l 428 1279 "},"ˆ":{"ha":360,"x_min":-64,"x_max":424,"o":"m 271 1015 l 90 1015 l -64 818 l 89 818 l 178 931 l 264 818 l 424 818 l 271 1015 "},"":{"ha":360,"x_min":-64,"x_max":424,"o":"m 271 1279 l 90 1279 l -64 1082 l 89 1082 l 178 1194 l 264 1082 l 424 1082 l 271 1279 "},"ˇ":{"ha":360,"x_min":-64,"x_max":424,"o":"m 96 1015 l -64 1015 l 89 818 l 269 818 l 424 1015 l 271 1015 l 182 903 l 96 1015 "},"":{"ha":360,"x_min":-64,"x_max":424,"o":"m 96 1279 l -64 1279 l 89 1082 l 269 1082 l 424 1279 l 271 1279 l 182 1167 l 96 1279 "},"˜":{"ha":360,"x_min":-75,"x_max":435,"o":"m 88 1001 q -21 953 24 1001 q -75 832 -65 906 l 13 832 q 75 890 29 890 q 172 865 110 890 q 279 843 233 843 q 385 886 347 843 q 435 1001 422 929 l 346 1001 q 325 965 339 976 q 286 953 311 953 q 192 978 253 953 q 88 1001 131 1001 "},"":{"ha":360,"x_min":-75,"x_max":435,"o":"m 88 1265 q -20 1218 25 1265 q -75 1096 -65 1171 l 13 1096 q 75 1154 28 1154 q 172 1129 108 1154 q 279 1107 231 1107 q 380 1144 342 1107 q 435 1265 418 1182 l 346 1265 q 324 1226 338 1236 q 286 1217 310 1217 q 199 1239 256 1217 q 88 1265 131 1265 "},"¨":{"ha":360,"x_min":-57,"x_max":417,"o":"m 131 993 l -57 993 l -57 831 l 131 831 l 131 993 m 417 993 l 229 993 l 229 831 l 417 831 l 417 993 "},"":{"ha":360,"x_min":-57,"x_max":417,"o":"m 131 1257 l -57 1257 l -57 1094 l 131 1094 l 131 1257 m 417 1257 l 229 1257 l 229 1094 l 417 1094 l 417 1257 "},"¯":{"ha":360,"x_min":-65,"x_max":425,"o":"m 425 964 l -65 964 l -65 860 l 425 860 l 425 964 "},"˚":{"ha":360,"x_min":10,"x_max":350,"o":"m 181 1117 q 99 1098 136 1117 q 35 1039 61 1079 q 10 950 10 999 q 33 863 10 903 q 96 803 57 822 q 179 783 135 783 q 265 804 225 783 q 327 864 304 825 q 350 950 350 903 q 328 1036 350 999 q 269 1095 307 1074 q 181 1117 231 1117 m 92 950 q 116 1017 92 990 q 179 1043 140 1043 q 245 1017 222 1043 q 268 950 268 990 q 244 883 268 908 q 179 857 219 857 q 115 883 139 857 q 92 950 92 910 "},"":{"ha":360,"x_min":18,"x_max":343,"o":"m 181 1351 q 99 1331 138 1351 q 40 1272 61 1310 q 18 1193 18 1235 q 39 1114 18 1151 q 99 1056 60 1076 q 181 1035 138 1035 q 263 1056 225 1035 q 322 1115 301 1078 q 343 1193 343 1151 q 322 1272 343 1235 q 263 1331 301 1310 q 181 1351 225 1351 m 96 1193 q 120 1257 96 1233 q 179 1281 144 1281 q 242 1256 219 1281 q 265 1193 265 1232 q 242 1130 265 1154 q 181 1106 218 1106 q 120 1130 144 1106 q 96 1193 96 1154 "},"¸":{"ha":360,"x_min":17,"x_max":351,"o":"m 160 0 l 78 -114 l 107 -147 q 160 -136 135 -136 q 202 -149 186 -136 q 218 -182 218 -161 q 156 -229 217 -228 q 46 -204 107 -229 l 17 -271 q 176 -301 93 -301 q 307 -267 263 -301 q 351 -172 351 -233 q 319 -93 351 -121 q 232 -65 286 -65 q 176 -75 203 -65 l 174 -72 l 228 0 l 160 0 "},"…":{"ha":1389,"x_min":122,"x_max":1265,"o":"m 340 214 l 122 214 l 122 0 l 340 0 l 340 214 m 803 214 l 585 214 l 585 0 l 803 0 l 803 214 m 1265 214 l 1047 214 l 1047 0 l 1265 0 l 1265 214 "},"­":{"ha":565,"x_min":74,"x_max":492,"o":"m 492 464 l 74 464 l 74 294 l 492 294 l 492 464 "},"¡":{"ha":386,"x_min":25,"x_max":303,"o":"m 303 738 l 85 738 l 85 524 l 303 524 l 303 738 m 243 440 l 144 440 l 90 13 l 90 -254 l 296 -254 l 296 13 l 243 440 m 25 718 "},"¿":{"ha":772,"x_min":44,"x_max":725,"o":"m 504 738 l 286 738 l 286 524 l 504 524 l 504 738 m 485 446 l 297 446 l 297 406 q 272 324 297 361 q 165 233 246 288 q 72 131 99 186 q 44 -3 44 76 q 85 -137 44 -75 q 204 -235 126 -199 q 389 -272 282 -272 q 626 -181 533 -272 q 725 71 719 -89 l 521 71 q 485 -58 521 -7 q 381 -110 450 -110 q 263 17 263 -110 q 283 88 263 57 q 354 157 303 119 q 456 270 426 210 q 485 411 485 331 l 485 446 m 154 718 "},"‘":{"ha":386,"x_min":94,"x_max":292,"o":"m 292 900 l 292 992 q 150 917 206 981 q 94 767 94 854 l 94 546 l 292 546 l 292 760 l 200 760 l 200 763 q 292 900 200 871 "},"’":{"ha":386,"x_min":94,"x_max":292,"o":"m 292 992 l 94 992 l 94 778 l 186 778 l 186 775 q 94 638 186 668 l 94 546 q 236 620 181 557 q 292 771 292 683 l 292 992 "},"“":{"ha":643,"x_min":75,"x_max":568,"o":"m 272 900 l 272 992 q 131 918 188 982 q 75 768 75 854 l 75 546 l 272 546 l 272 760 l 181 760 q 202 851 181 818 q 272 900 224 883 m 568 900 l 568 992 q 427 918 483 982 q 371 768 371 854 l 371 546 l 568 546 l 568 760 l 476 760 q 497 849 476 815 q 568 900 518 883 "},"”":{"ha":643,"x_min":75,"x_max":568,"o":"m 272 992 l 75 992 l 75 778 l 167 778 q 144 685 167 717 q 75 638 121 653 l 75 546 q 217 621 163 557 q 272 768 272 685 l 272 992 m 568 992 l 371 992 l 371 778 l 463 778 q 440 685 463 718 q 371 638 418 653 l 371 546 q 511 619 454 557 q 568 771 568 681 l 568 992 "},"‚":{"ha":386,"x_min":94,"x_max":292,"o":"m 292 214 l 94 214 l 94 0 l 186 0 l 186 -3 q 94 -140 186 -111 l 94 -232 q 236 -158 181 -221 q 292 -8 292 -94 l 292 214 "},"„":{"ha":643,"x_min":75,"x_max":568,"o":"m 272 214 l 75 214 l 75 0 l 167 0 q 143 -94 167 -62 q 75 -140 119 -125 l 75 -232 q 215 -159 158 -222 q 272 -10 272 -96 l 272 214 m 568 214 l 371 214 l 371 0 l 463 0 q 439 -94 463 -62 q 371 -140 415 -125 l 371 -232 q 511 -159 454 -222 q 568 -8 568 -96 l 568 214 "},"‹":{"ha":335,"x_min":58,"x_max":276,"o":"m 276 643 l 58 472 l 58 285 l 276 111 l 276 278 l 151 378 l 276 476 l 276 643 "},"›":{"ha":335,"x_min":58,"x_max":276,"o":"m 276 472 l 58 643 l 58 476 l 183 378 l 58 278 l 58 111 l 276 285 l 276 472 "},"«":{"ha":617,"x_min":58,"x_max":558,"o":"m 276 643 l 58 472 l 58 285 l 276 111 l 276 278 l 151 378 l 276 476 l 276 643 m 558 643 l 340 472 l 340 285 l 558 111 l 558 278 l 433 378 l 558 476 l 558 643 "},"»":{"ha":617,"x_min":58,"x_max":558,"o":"m 276 472 l 58 643 l 58 476 l 183 378 l 58 278 l 58 111 l 276 285 l 276 472 m 340 643 l 340 476 l 465 378 l 340 278 l 340 111 l 558 285 l 558 472 l 340 643 "},"–":{"ha":694,"x_min":0,"x_max":694,"o":"m 694 464 l 0 464 l 0 294 l 694 294 l 694 464 "},"—":{"ha":1389,"x_min":181,"x_max":1208,"o":"m 1208 464 l 181 464 l 181 294 l 1208 294 l 1208 464 "},"•":{"ha":696,"x_min":100,"x_max":596,"o":"m 347 743 q 172 671 243 743 q 100 496 100 599 q 172 319 100 390 q 347 247 244 247 q 525 321 454 247 q 596 496 596 394 q 523 671 596 599 q 347 743 450 743 "},"·":{"ha":386,"x_min":76,"x_max":311,"o":"m 194 517 q 138 502 165 517 q 94 459 111 488 q 76 399 76 431 q 91 344 76 372 q 135 299 106 317 q 196 282 164 282 q 253 299 225 282 q 296 344 281 317 q 311 399 311 371 q 294 458 311 431 q 251 501 278 486 q 194 517 225 517 "},"†":{"ha":772,"x_min":33,"x_max":739,"o":"m 479 992 l 292 992 l 292 718 l 33 718 l 33 556 l 292 556 l 292 -231 l 479 -231 l 479 556 l 739 556 l 739 718 l 479 718 l 479 992 "},"‡":{"ha":772,"x_min":33,"x_max":739,"o":"m 479 992 l 292 992 l 292 718 l 33 718 l 33 556 l 292 556 l 292 200 l 33 200 l 33 38 l 292 38 l 292 -231 l 479 -231 l 479 38 l 739 38 l 739 200 l 479 200 l 479 556 l 739 556 l 739 718 l 479 718 l 479 992 "},"§":{"ha":772,"x_min":14,"x_max":758,"o":"m 393 1015 q 188 948 272 1015 q 103 775 103 881 q 163 635 103 703 q 14 433 14 582 q 72 289 14 351 q 269 163 129 226 l 346 128 q 456 63 418 96 q 493 -10 493 31 q 467 -78 493 -51 q 390 -104 440 -104 q 254 17 260 -104 l 82 17 q 165 -185 82 -117 q 394 -253 249 -253 q 605 -187 519 -253 q 690 -19 690 -122 q 614 144 690 88 q 718 222 678 168 q 758 347 758 275 q 704 485 758 424 q 463 632 650 547 q 331 706 371 671 q 290 779 290 740 q 323 842 290 818 q 396 867 356 867 q 481 833 449 867 q 514 747 514 800 l 686 747 q 604 942 686 868 q 393 1015 522 1015 m 186 449 q 209 513 186 483 q 260 542 232 542 q 282 535 271 542 l 524 399 q 586 311 586 364 q 567 260 586 285 q 522 235 547 235 q 463 254 497 235 l 233 379 q 186 449 186 406 "},"¶":{"ha":861,"x_min":3,"x_max":743,"o":"m 743 -231 l 743 992 l 333 992 q 3 739 3 992 q 80 563 3 628 q 307 496 157 497 l 307 -231 l 449 -231 l 449 881 l 601 881 l 601 -231 l 743 -231 "},"¦":{"ha":310,"x_min":81,"x_max":229,"o":"m 229 918 l 81 918 l 81 571 l 229 571 l 229 918 m 229 224 l 81 224 l 81 -124 l 229 -124 l 229 224 "},"©":{"ha":1111,"x_min":22,"x_max":1089,"o":"m 556 1015 q 288 948 413 1015 q 92 761 163 881 q 22 496 22 642 q 92 231 22 350 q 287 44 163 111 q 556 -24 411 -24 q 821 42 697 -24 q 1017 228 944 107 q 1089 496 1089 349 q 1018 763 1089 643 q 824 949 947 883 q 556 1015 701 1015 m 164 496 q 276 788 164 671 q 554 904 389 904 q 835 786 722 904 q 947 496 947 668 q 835 205 947 322 q 556 88 722 88 q 277 203 390 88 q 164 496 164 319 m 572 810 q 358 725 440 810 q 276 499 276 640 q 359 278 276 367 q 575 190 442 190 q 741 249 671 190 q 828 410 811 308 l 715 410 q 669 329 707 357 q 575 301 631 301 q 456 358 503 301 q 410 501 410 415 q 451 644 410 589 q 572 699 493 699 q 665 672 625 699 q 715 594 704 644 l 824 594 q 742 752 811 694 q 572 810 674 810 "},"®":{"ha":1111,"x_min":22,"x_max":1089,"o":"m 556 1015 q 286 948 410 1015 q 92 762 163 881 q 22 497 22 643 q 93 231 22 351 q 287 43 164 110 q 556 -24 410 -24 q 826 44 703 -24 q 1019 231 950 111 q 1089 497 1089 350 q 1017 763 1089 643 q 823 949 946 883 q 556 1015 700 1015 m 164 497 q 276 789 164 674 q 554 904 389 904 q 837 785 726 904 q 947 497 947 665 q 835 206 947 325 q 556 88 722 88 q 274 207 385 88 q 164 497 164 326 m 571 789 l 349 789 l 349 207 l 464 207 l 464 456 l 536 456 l 678 207 l 799 207 l 643 461 q 796 617 796 475 q 740 748 796 707 q 571 789 685 789 m 574 546 l 464 546 l 464 699 l 563 699 q 681 626 681 699 q 658 565 681 585 q 574 546 635 546 "},"™":{"ha":1389,"x_min":86,"x_max":1289,"o":"m 553 992 l 86 992 l 86 881 l 249 881 l 249 419 l 390 419 l 390 881 l 553 881 l 553 992 m 815 992 l 626 992 l 626 419 l 760 419 l 760 825 l 763 825 l 910 419 l 1006 419 l 1153 825 l 1156 825 l 1156 419 l 1289 419 l 1289 992 l 1101 992 l 958 615 l 815 992 "},"¤":{"ha":772,"x_min":28,"x_max":744,"o":"m 660 847 l 579 768 q 489 815 542 800 q 389 831 436 831 q 276 813 331 831 q 186 767 221 796 l 107 844 l 28 765 l 107 685 q 40 485 40 618 q 107 288 40 367 l 28 207 l 106 129 l 183 210 q 388 142 257 142 q 586 211 517 142 l 665 131 l 742 207 l 665 285 q 729 488 729 361 q 667 686 729 615 l 744 763 l 660 847 m 213 485 q 262 626 213 571 q 388 682 311 682 q 510 627 464 682 q 557 488 557 572 q 511 346 557 401 q 388 290 465 290 q 262 345 311 290 q 213 485 213 400 "},"€":{"ha":772,"x_min":21,"x_max":800,"o":"m 547 1003 q 278 903 388 1003 q 135 632 169 804 l 64 632 l 21 532 l 122 532 l 121 510 l 121 474 l 65 474 l 22 374 l 129 374 q 266 79 160 182 q 536 -24 372 -24 q 751 32 660 -24 l 753 242 q 539 154 642 154 q 333 374 378 154 l 575 374 l 618 474 l 322 474 l 322 488 l 324 532 l 635 532 l 678 632 l 339 632 q 533 822 388 822 q 715 760 617 822 l 800 933 q 547 1003 664 1003 m 350 992 "},"¢":{"ha":772,"x_min":29,"x_max":757,"o":"m 361 856 l 361 738 q 118 619 207 724 q 29 347 29 515 q 122 92 29 196 q 361 -19 215 -11 l 361 -160 l 443 -160 l 443 -19 q 661 73 576 -8 q 757 282 746 154 l 564 282 q 530 184 564 229 q 443 129 496 139 l 443 589 q 524 549 492 585 q 561 464 557 513 l 754 464 q 659 658 750 579 q 443 738 568 738 l 443 856 l 361 856 m 226 367 q 261 513 226 454 q 361 588 296 571 l 361 129 q 261 211 296 150 q 226 367 226 272 "},"£":{"ha":772,"x_min":29,"x_max":788,"o":"m 410 1015 q 153 939 250 1015 q 56 739 56 863 q 74 632 56 683 q 118 547 92 581 l 29 547 l 29 429 l 167 429 q 193 336 193 372 q 36 106 193 204 l 122 -24 q 282 29 189 29 q 415 3 347 29 q 569 -24 483 -24 q 788 65 696 -24 l 704 206 q 649 160 675 174 q 583 146 622 146 q 472 163 550 146 q 364 178 410 178 q 269 146 325 178 l 267 149 q 351 239 322 193 q 381 344 381 285 q 369 429 381 399 l 515 429 l 515 547 l 331 547 q 283 654 292 622 q 274 724 274 686 q 312 819 274 786 q 410 853 350 853 q 561 668 553 853 l 749 668 q 658 928 747 840 q 410 1015 569 1015 m 654 992 "},"ƒ":{"ha":772,"x_min":-7,"x_max":710,"o":"m 606 1015 q 408 962 471 1015 q 319 776 344 908 l 286 600 l 160 600 l 135 468 l 263 468 l 175 11 q 143 -67 165 -47 q 82 -87 121 -87 q 19 -83 40 -87 l -7 -232 q 93 -236 22 -236 q 292 -181 228 -236 q 386 38 357 -125 l 464 468 l 603 468 l 625 600 l 489 600 l 524 781 q 556 849 533 831 q 632 867 579 867 q 685 857 664 867 l 710 1006 q 606 1015 665 1015 "},"¥":{"ha":772,"x_min":-12,"x_max":801,"o":"m 214 992 l -12 992 l 201 560 l 69 560 l 69 428 l 268 428 l 288 388 l 288 324 l 69 324 l 69 192 l 288 192 l 288 0 l 499 0 l 499 192 l 718 192 l 718 324 l 499 324 l 499 388 l 519 428 l 718 428 l 718 560 l 586 560 l 801 992 l 576 992 l 397 560 l 214 992 "},"ª":{"ha":478,"x_min":14,"x_max":469,"o":"m 244 992 q 94 956 147 992 q 28 840 42 921 l 169 840 q 239 901 176 899 q 301 890 281 901 q 321 847 321 879 q 295 813 319 821 q 235 801 271 806 q 91 776 129 792 q 33 732 53 760 q 14 660 14 704 q 55 558 14 594 q 169 521 96 521 q 319 576 265 521 q 329 533 322 556 l 469 533 q 453 633 453 568 l 453 867 q 401 961 453 931 q 244 992 349 992 m 156 663 q 180 702 156 689 q 253 722 204 715 q 319 743 306 729 l 319 711 q 219 611 319 611 q 156 663 157 613 "},"º":{"ha":510,"x_min":17,"x_max":493,"o":"m 254 992 q 81 928 146 992 q 17 756 17 865 q 81 583 17 646 q 254 521 146 521 q 428 584 364 521 q 493 756 493 647 q 428 928 493 865 q 254 992 363 992 m 165 756 q 190 852 165 817 q 254 888 215 888 q 320 851 296 888 q 344 756 344 815 q 319 662 344 699 q 254 625 293 625 q 188 664 211 625 q 165 756 165 703 "},"¹":{"ha":542,"x_min":79,"x_max":374,"o":"m 374 1139 l 257 1139 q 108 1024 242 1024 l 79 1024 l 79 924 l 232 924 l 232 551 l 374 551 l 374 1139 "},"²":{"ha":542,"x_min":46,"x_max":496,"o":"m 285 1151 q 117 1094 179 1151 q 56 939 56 1038 l 194 939 q 283 1044 199 1044 q 336 1024 317 1044 q 356 975 356 1004 q 340 921 356 943 q 286 875 324 899 l 182 810 q 76 706 107 763 q 46 553 46 650 l 46 551 l 492 551 l 492 663 l 206 663 q 269 733 211 696 l 383 803 q 496 975 496 872 q 440 1105 496 1058 q 285 1151 385 1151 "},"³":{"ha":542,"x_min":38,"x_max":501,"o":"m 275 1151 q 115 1101 175 1151 q 51 954 56 1050 l 183 954 q 269 1046 183 1046 q 328 1028 307 1046 q 350 978 350 1010 q 326 928 350 946 q 261 910 301 910 l 225 910 l 225 814 l 264 814 q 346 794 321 814 q 371 731 371 775 q 342 670 371 692 q 269 649 314 649 q 171 732 182 649 l 38 732 q 95 592 38 646 q 265 539 153 539 q 433 590 365 539 q 501 725 501 642 q 386 872 501 849 q 478 994 478 904 q 422 1110 478 1069 q 275 1151 367 1151 "},"⁄":{"ha":232,"x_min":-231,"x_max":463,"o":"m 463 1003 l 344 1003 l -231 -31 l -110 -31 l 463 1003 "},"½":{"ha":1158,"x_min":49,"x_max":1103,"o":"m 343 976 l 226 976 q 78 861 211 861 l 49 861 l 49 761 l 201 761 l 201 389 l 343 389 l 343 976 m 874 1003 l 756 1003 l 181 -31 l 301 -31 l 874 1003 m 892 600 q 724 543 786 600 q 663 388 663 486 l 801 388 q 890 493 806 493 q 943 473 924 493 q 963 424 963 453 q 947 369 963 392 q 893 324 931 347 l 789 258 q 683 155 714 211 q 653 1 653 99 l 653 0 l 1099 0 l 1099 111 l 813 111 q 876 182 818 144 l 990 251 q 1103 424 1103 321 q 1047 553 1103 507 q 892 600 992 600 "},"¼":{"ha":1158,"x_min":49,"x_max":1097,"o":"m 343 976 l 226 976 q 78 861 211 861 l 49 861 l 49 761 l 201 761 l 201 389 l 343 389 l 343 976 m 901 1003 l 783 1003 l 208 -31 l 329 -31 l 901 1003 m 1018 588 l 892 588 l 624 232 l 624 115 l 885 115 l 885 0 l 1018 0 l 1018 115 l 1097 115 l 1097 221 l 1018 221 l 1018 588 m 728 221 l 885 435 l 885 221 l 728 221 "},"¾":{"ha":1158,"x_min":51,"x_max":1139,"o":"m 289 989 q 129 938 189 989 q 65 792 69 888 l 197 792 q 283 883 197 883 q 342 865 321 883 q 364 815 364 847 q 340 765 364 783 q 275 747 315 747 l 239 747 l 239 651 l 278 651 q 360 632 335 651 q 385 568 385 613 q 356 508 385 529 q 283 486 328 486 q 185 569 196 486 l 51 569 q 109 430 51 483 q 279 376 167 376 q 447 428 379 376 q 515 563 515 479 q 400 710 515 686 q 492 832 492 742 q 436 948 492 907 q 289 989 381 989 m 1000 1003 l 882 1003 l 307 -31 l 428 -31 l 1000 1003 m 1060 588 l 933 588 l 665 232 l 665 115 l 926 115 l 926 0 l 1060 0 l 1060 115 l 1139 115 l 1139 221 l 1060 221 l 1060 588 m 769 221 l 926 435 l 926 221 l 769 221 "},"‰":{"ha":1593,"x_min":96,"x_max":1497,"o":"m 901 1003 l 783 1003 l 208 -31 l 329 -31 l 901 1003 m 815 458 q 663 391 715 458 q 611 215 611 324 q 665 44 611 107 q 814 -19 719 -19 q 965 42 913 -19 q 1017 215 1017 104 q 815 458 1017 458 m 736 225 q 756 339 736 310 q 817 368 775 368 q 874 338 856 368 q 892 215 892 308 q 874 101 892 132 q 814 71 856 71 q 754 108 772 71 q 736 225 736 146 m 1296 458 q 1146 393 1200 458 q 1092 215 1092 328 q 1145 44 1092 107 q 1294 -19 1199 -19 q 1446 42 1394 -19 q 1497 215 1497 104 q 1296 458 1497 458 m 1217 228 q 1235 338 1217 308 q 1297 368 1254 368 q 1353 338 1335 368 q 1372 215 1372 308 q 1353 99 1372 128 q 1294 71 1335 71 q 1217 228 1217 71 m 300 992 q 149 926 203 992 q 96 749 96 861 q 149 578 96 642 q 299 514 203 514 q 449 575 396 514 q 501 749 501 636 q 300 992 501 992 m 221 761 q 228 847 221 822 q 253 887 236 872 q 301 901 271 901 q 358 872 340 901 q 376 750 376 842 q 358 633 376 661 q 299 604 339 604 q 240 640 260 604 q 221 761 221 675 "},"±":{"ha":833,"x_min":67,"x_max":768,"o":"m 492 703 l 343 703 l 343 521 l 67 521 l 67 372 l 343 372 l 343 190 l 492 190 l 492 372 l 768 372 l 768 521 l 492 521 l 492 703 m 768 149 l 67 149 l 67 0 l 768 0 l 768 149 "},"×":{"ha":833,"x_min":89,"x_max":746,"o":"m 197 679 l 92 574 l 313 351 l 89 129 l 194 24 l 418 247 l 640 24 l 746 129 l 522 351 l 746 574 l 640 679 l 418 457 l 197 679 "},"÷":{"ha":833,"x_min":67,"x_max":768,"o":"m 418 757 q 335 723 371 757 q 300 639 300 689 q 334 558 300 593 q 419 522 368 522 q 501 560 467 522 q 535 639 535 597 q 499 723 535 689 q 418 757 464 757 m 768 425 l 67 425 l 67 276 l 768 276 l 768 425 m 418 179 q 335 145 369 179 q 300 63 300 111 q 335 -20 300 15 q 419 -56 371 -56 q 500 -19 465 -56 q 535 63 535 18 q 501 145 535 111 q 418 179 467 179 "},"¬":{"ha":833,"x_min":56,"x_max":756,"o":"m 756 564 l 56 564 l 56 415 l 607 415 l 607 138 l 756 138 l 756 564 "},"µ":{"ha":824,"x_min":75,"x_max":749,"o":"m 272 718 l 75 718 l 75 -253 l 272 -253 l 272 14 q 376 -19 315 -19 q 557 100 476 -19 l 561 100 l 561 0 l 749 0 l 749 718 l 551 718 l 551 340 q 516 185 551 233 q 399 136 481 136 q 300 180 328 136 q 272 313 272 224 l 272 718 "},"°":{"ha":556,"x_min":72,"x_max":483,"o":"m 278 992 q 131 931 190 992 q 72 786 72 871 q 133 641 72 701 q 278 581 193 581 q 424 640 364 581 q 483 786 483 700 q 424 932 483 872 q 278 992 364 992 m 163 786 q 197 872 163 835 q 278 908 232 908 q 358 871 324 908 q 393 786 393 833 q 358 701 393 738 q 278 664 324 664 q 198 701 233 664 q 163 786 163 738 "}}}
